<svg id="Layer_1" data-name="Layer 1" xmlns="http://www.w3.org/2000/svg" xmlns:xlink="http://www.w3.org/1999/xlink" viewBox="0 0 451 502.1"><defs><style>.cls-1,.cls-10,.cls-12{fill:none;}.cls-2{fill:#212020;}.cls-3{clip-path:url(#clip-path);}.cls-4,.cls-9{fill:#ed1c24;}.cls-10,.cls-12,.cls-4,.cls-7{stroke:#000;}.cls-10,.cls-12,.cls-14,.cls-15,.cls-4,.cls-7{stroke-linecap:round;stroke-linejoin:round;}.cls-10,.cls-14,.cls-15,.cls-4,.cls-7{stroke-width:3px;}.cls-5{fill:#ff4900;}.cls-11,.cls-5,.cls-6{opacity:0.2;}.cls-6{fill:#7c0a12;}.cls-7{fill:#fec216;}.cls-11,.cls-13,.cls-8{fill:#fff;}.cls-12{stroke-width:6px;}.cls-13{opacity:0.5;}.cls-14{fill:#fe6e16;}.cls-14,.cls-15{stroke:#ba3905;}</style><clipPath id="clip-path" transform="translate(-280.2 -184.7)"><circle id="Ellipse_1" data-name="Ellipse 1" class="cls-1" cx="505.7" cy="479.3" r="202.7"/></clipPath></defs><title>angry</title><circle id="Ellipse_1-2" data-name="Ellipse 1" class="cls-2" cx="225.5" cy="294.6" r="202.7"/><g class="cls-3"><path class="cls-4" d="M607.5,461.8c16.3-11.7,49.8,17.5,78.6,59.1s39.2,89,42.7,111.4c9.7,62.5-68.1,55.8-92.8,1.2C601.2,556.8,587.7,476.1,607.5,461.8Z" transform="translate(-280.2 -184.7)"/><path class="cls-5" d="M636,633.5c10.9,24,32,38.7,51.4,42.4a86.1,86.1,0,0,1-24-28.7c-30.6-59.1-54.6-130.5-60.8-179.2C590.6,492.1,604.7,564.4,636,633.5Z" transform="translate(-280.2 -184.7)"/><g id="body"><path id="Group_3" data-name="Group 3" class="cls-4" d="M639.7,498.5c19.1,35.3,14.6,123.1-11.4,172.2,0,0-36.4,13-115.5,14.4-83.3,1.5-119.4-5.4-119.4-5.4C364.9,597,375.6,524,400.5,480.3c15.2-26.7,46.1-42.4,80.1-54.4,31.6-11.3,92.1-10.8,129.7,25.1" transform="translate(-280.2 -184.7)"/><path id="Group_2" data-name="Group 2" class="cls-6" d="M394.5,678.1c1.2,3.5,15.3,1.9,29,3.5-14-29.9-35.9-150.8-6.4-218.9a80.1,80.1,0,0,0-16.7,21.1C392.8,497.3,358.4,566.1,394.5,678.1Z" transform="translate(-280.2 -184.7)"/><g id="Group_1" data-name="Group 1"><path id="Group_1-2" data-name="Group 1" class="cls-2" d="M613.3,510.8c-.3,6.8-1.1,13.5-4.8,19.7s-10.8,12-19.8,13.1l-43.7,5c-1.8.3-3.3.9-3.9,2.8a58.9,58.9,0,0,0,7,2.6c1.3.4,2.8,0,4.2-.1l17.1-1.4a33.6,33.6,0,0,1,12.6,1.1c4.5,1.4,7.9,4,8.7,8.5a11.9,11.9,0,0,1-.4,5.9c-3.8,12.8-11.6,22.2-24.5,27.2a37.1,37.1,0,0,0,1.3-5.3c.7-5.3-1.8-7.7-7.6-7.7s-11,1.8-15.9,4c-2.1.9-4.1,2.1-6.1,3.2a2,2,0,0,0-.9,1.6c-.7,8.7-1.2,17.3-1.8,25.9-.2,2.7-.4,5.5-.5,8.3l-23.7-1c.6-1.5,1-3,1.5-4.4,3.6-9.9,8.5-19.3,15.8-27.5a41.6,41.6,0,0,1,35.9-14.5c4.5.5,8.1,2.6,9.2,7.5,5.6-5.7,11-11.2,12.3-19.1.7-4.1-.7-6.2-4.9-7.7a36.9,36.9,0,0,0-13.5-2c-6.3.2-12.4.6-18.3.9a3.4,3.4,0,0,1-1.7-.5c-5.9-3.6-12.2-4.3-18.7-3.1a35.6,35.6,0,0,0-12.9,4.9c-.4-7.1-.1-13.8,2.4-20.5a23.2,23.2,0,0,1,4.9-8.1,18.2,18.2,0,0,1,10.2-5.4L611.9,511Z" transform="translate(-280.2 -184.7)"/></g></g><path class="cls-4" d="M455.8,462.7c-18.2-15.1-69.9-14.3-110.4,39.1-34.8,45.8-53.3,102.7-60.6,126.4-20.3,66,63.5,60.6,112.8,15.7,40.6-37,61.3-86.9,66.9-125.4" transform="translate(-280.2 -184.7)"/><path class="cls-6" d="M461.8,532.9c-8.2,36-28.5,78.5-64.2,111s-85.7,43.4-106.5,25.4A171.4,171.4,0,0,0,345.6,649C396.9,619.4,436.9,574.1,461.8,532.9Z" transform="translate(-280.2 -184.7)"/></g><g id="hair"><g id="Group_3-2" data-name="Group 3"><path id="Group_1-3" data-name="Group 1" class="cls-4" d="M569.7,186.2a2.3,2.3,0,0,1,2.5,2.3c-.1,11.6-3.6,20.6-14.9,25.6-5.4,2.3-29.9,1.8-40.5,5.4a2.3,2.3,0,0,0,.7,4.5c13.6.8,35.6-6.6,40.1,7.8s-2,44.5-8.9,52.2c-2,2.3-6-.5-4.5-3.1,5.4-9.1,15.3-37.6,5.4-49.4-6.1-7.3-23.4-.9-31.1-1.6-12.7-1.2-18.4-6.7-30.1-.3a2.3,2.3,0,0,1-3.5-1.9c-1.1-19.4,5.9-29.4,25.9-33S550.3,187.5,569.7,186.2Z" transform="translate(-280.2 -184.7)"/></g><path id="Group_2-2" data-name="Group 2" class="cls-4" d="M549.9,254.5c-1.7-1.8-4-3.6-6.7-3.9s-6.4,1.4-6.8,4.9,1.9,5.7,4.2,7.2,4.4,1.7,6.4,2.3a25.4,25.4,0,0,1,6.6,3.3c1.2.8,2.4,2,2.7-.4C556.8,263.7,552.6,257.3,549.9,254.5Z" transform="translate(-280.2 -184.7)"/><path id="Group_1-4" data-name="Group 1" class="cls-4" d="M561.4,253.4a11,11,0,0,1,5.2-4.1c2.2-.6,4.8.1,5.7,2s.1,3.6-1.1,5.1a22.5,22.5,0,0,1-4.3,3.8,35.2,35.2,0,0,0-6,6.2c-1.3,1.6-2.6,3.7-3.8,1.6C555.1,264.3,559,256.4,561.4,253.4Z" transform="translate(-280.2 -184.7)"/></g><path id="Group_3-3" data-name="Group 3" class="cls-4" d="M456,478.5c-67.3-19.7-83.1-66.2-83.1-66.2,13.5,6.2,26.3-4.2,26.3-4.2-24.1-13.5-31.6-37.3-31.6-37.3,14.7,12.4,42.7,5.8,42.7,5.8C418.2,314,464.8,262.8,538.9,267c77.5,4.4,117.5,69.5,118.1,127.5,0,0,15.2,5.5,26.3-1.2,0,0,.9,16.7-16.8,28.4,0,0,6.9,8.3,14.9,6.2,0,0-6.3,28.5-69.5,47.6" transform="translate(-280.2 -184.7)"/><path class="cls-6" d="M670,398.3a38.2,38.2,0,0,1-11.6-1.6,109,109,0,0,1-11.8,50.8A99.2,99.2,0,0,0,660.3,424C662.7,418.1,670,398.3,670,398.3Z" transform="translate(-280.2 -184.7)"/><path class="cls-6" d="M372.9,412.3s15.8,46.5,83.1,66.2c-30.8-14.3-54.6-35.5-63.4-60.7,8.8,1.1,16.5-2.6,23.6-7.9-12-3.6-25.9-17.3-30.2-25.6,6.6,4.5,26.6,5.8,34.5,5.4,5-49.9,33.3-90.1,74.7-118.2-48.6,13.7-78.7,55.9-84.9,105.1,0,0-27.9,6.6-42.7-5.8,0,0,7.5,23.8,31.5,37.2C399.1,408,386.4,418.5,372.9,412.3Z" transform="translate(-280.2 -184.7)"/><path class="cls-4" d="M657,394.5c1,17.2-4.4,39.1-10.5,51.4" transform="translate(-280.2 -184.7)"/><ellipse class="cls-7" cx="517.7" cy="340.3" rx="16.6" ry="14.9" transform="translate(-130.8 653.8) rotate(-86.8)"/><circle class="cls-8" cx="235.9" cy="146.3" r="4"/><path class="cls-9" d="M497.8,321.6c10.9,13,26.5,22.5,40.8,24.2,0,0,9.8-21.1-10.6-34C509.5,300,497.8,321.6,497.8,321.6Z" transform="translate(-280.2 -184.7)"/><path class="cls-10" d="M497.8,321.6c10.9,13,26.5,22.5,40.8,24.2" transform="translate(-280.2 -184.7)"/><ellipse class="cls-7" cx="596.8" cy="340.4" rx="13.1" ry="16.6" transform="translate(-288.7 -169.4) rotate(-1.5)"/><ellipse class="cls-8" cx="309" cy="150.3" rx="3.5" ry="4"/><path class="cls-9" d="M614.3,321.7c-9.6,13-23.4,22.5-35.9,24.2,0,0-8.6-21.1,9.3-34C604,300.1,614.3,321.7,614.3,321.7Z" transform="translate(-280.2 -184.7)"/><path class="cls-10" d="M614.3,321.7c-9.6,13-23.4,22.5-35.9,24.2" transform="translate(-280.2 -184.7)"/><g id="Group_5" data-name="Group 5"><circle id="Group_4" data-name="Group 4" class="cls-11" cx="328.7" cy="163.6" r="31.4"/><circle id="Group_3-4" data-name="Group 3" class="cls-12" cx="328.7" cy="163.6" r="31.4"/><path id="Group_2-3" data-name="Group 2" class="cls-13" d="M614,346c5,7.7,7.1,15.1,13.7,11.4s8.7-14.3,3.1-22.8-15.4-10.7-21.7-5.7S609.1,338.4,614,346Z" transform="translate(-280.2 -184.7)"/><path id="Group_1-5" data-name="Group 1" class="cls-13" d="M599.5,359.3c-4-3.9-6.2-8-9.7-5s-3.2,9.8,1.2,14.1,10.7,4.3,13.7.4S603.5,363.2,599.5,359.3Z" transform="translate(-280.2 -184.7)"/></g><path class="cls-14" d="M538.7,365.9c-.9,22.4,22,54.9,41.1,48.8,12.7-4.1-1.1-24.9,1-35.9" transform="translate(-280.2 -184.7)"/><path class="cls-15" d="M566.8,377c-4.4-.7-11.6.6-10.1,8,2.5,11.7,15,26,26.2,23.4,4.8-1.1-6.5-22.6-2.1-29.6Z" transform="translate(-280.2 -184.7)"/><path class="cls-14" d="M545.6,381.1c23.9-4.3,61.6-1.4,61.6-1.4,1.4-29.8-22.1-47.5-45.1-40.9-16.6,4.8-26.1,14.5-22.7,30.3" transform="translate(-280.2 -184.7)"/><path class="cls-13" d="M589.8,348.9c10.2,7.7-28,.2-20.1-4.9S586.7,346.5,589.8,348.9Z" transform="translate(-280.2 -184.7)"/><g id="Group_4-2" data-name="Group 4"><circle id="Group_4-3" data-name="Group 4" class="cls-11" cx="237" cy="159.5" r="31.4"/><circle id="Group_3-5" data-name="Group 3" class="cls-12" cx="237" cy="159.5" r="31.4"/><path id="Group_2-4" data-name="Group 2" class="cls-13" d="M522.3,341.9c5,7.7,7.1,15.1,13.7,11.4s8.7-14.3,3.1-22.8-15.4-10.7-21.7-5.6S517.4,334.3,522.3,341.9Z" transform="translate(-280.2 -184.7)"/><path id="Group_1-6" data-name="Group 1" class="cls-13" d="M507.8,355.2c-4-3.9-6.2-8-9.7-5s-3.2,9.8,1.2,14.1,10.7,4.3,13.7.4S511.8,359.1,507.8,355.2Z" transform="translate(-280.2 -184.7)"/><path id="Group_3-6" data-name="Group 3" class="cls-12" d="M578.4,337.5c-6.5-3.4-23.7-3.8-29.9,5" transform="translate(-280.2 -184.7)"/></g></svg>