<svg id="Layer_1" data-name="Layer 1" xmlns="http://www.w3.org/2000/svg" xmlns:xlink="http://www.w3.org/1999/xlink" viewBox="0 0 405.5 489.3"><defs><style>.cls-1,.cls-12,.cls-14{fill:none;}.cls-2{fill:#212020;}.cls-3{clip-path:url(#clip-path);}.cls-11,.cls-4{fill:#fec216;}.cls-12,.cls-14,.cls-18,.cls-19,.cls-20,.cls-4,.cls-9{stroke:#000;}.cls-12,.cls-14,.cls-16,.cls-17,.cls-18,.cls-19,.cls-20,.cls-4{stroke-linecap:round;stroke-linejoin:round;}.cls-12,.cls-16,.cls-17,.cls-18,.cls-19,.cls-20,.cls-4{stroke-width:3px;}.cls-5{fill:#ff4900;}.cls-13,.cls-21,.cls-5{opacity:0.2;}.cls-6{fill:#00b9ff;}.cls-7{fill:#04779b;opacity:0.3;}.cls-8{fill:#d4f3ff;}.cls-15,.cls-8{opacity:0.5;}.cls-9{stroke-miterlimit:10;}.cls-10,.cls-13,.cls-15{fill:#fff;}.cls-14{stroke-width:6px;}.cls-16{fill:#fe6e16;}.cls-16,.cls-17{stroke:#ba3905;}.cls-18{fill:#999;}.cls-19{fill:#e6e6e6;}.cls-20{fill:#f15a24;}</style><clipPath id="clip-path" transform="translate(-302.9 -210.2)"><circle id="Ellipse_1" data-name="Ellipse 1" class="cls-1" cx="505.7" cy="479.3" r="202.7"/></clipPath></defs><title>cry</title><circle id="Ellipse_1-2" data-name="Ellipse 1" class="cls-2" cx="202.7" cy="269.1" r="202.7"/><g class="cls-3"><path class="cls-4" d="M424.6,480.2c-15.8-11.4-48.5,17-76.5,57.5s-38.2,86.7-41.6,108.5c-9.4,60.9,66.4,54.4,90.4,1.3C430.8,572.7,444,494.1,424.6,480.2Z" transform="translate(-302.9 -210.2)"/><path class="cls-5" d="M396.9,647.5c-10.6,23.3-31.1,37.7-50.1,41.2a83.6,83.6,0,0,0,23.4-27.9c29.8-57.6,53.2-127.2,59.3-174.7C441.2,509.6,427.4,580.1,396.9,647.5Z" transform="translate(-302.9 -210.2)"/><g id="body"><path id="Group_3" data-name="Group 3" class="cls-4" d="M393.3,515.9c-18.6,34.4-14.2,120,11.1,167.7,0,0,35.4,12.8,112.5,14.1,81.2,1.4,116.3-5.3,116.3-5.3,27.9-80.5,17.3-151.6-6.9-194.3-14.8-25.9-44.9-41.2-78-53-30.8-10.9-89.8-10.4-126.3,24.5" transform="translate(-302.9 -210.2)"/><path id="Group_2" data-name="Group 2" class="cls-5" d="M632.1,690.9c-1,3.4-14.8,1.8-28.2,3.3,13.7-29,35-146.8,6.3-213.2a78.7,78.7,0,0,1,16.2,20.5C633.8,514.7,667.3,581.8,632.1,690.9Z" transform="translate(-302.9 -210.2)"/><g id="Group_1" data-name="Group 1"><path id="Group_1-2" data-name="Group 1" class="cls-2" d="M543.3,522.8c-.3,6.6-1,13.1-4.7,19.2s-10.4,11.7-19.2,12.7l-42.6,5c-1.8.2-3.2.8-3.8,2.6a51.7,51.7,0,0,0,6.9,2.6,13.6,13.6,0,0,0,4-.1l16.6-1.4a34.1,34.1,0,0,1,12.3,1.1c4.4,1.4,7.8,3.9,8.5,8.3a12.7,12.7,0,0,1-.3,5.8c-3.7,12.4-11.4,21.5-24,26.5a39.5,39.5,0,0,0,1.3-5.2c.7-5.2-1.7-7.5-7.3-7.5a36.2,36.2,0,0,0-15.5,3.9,56.5,56.5,0,0,0-6,3.1,2.9,2.9,0,0,0-.9,1.5l-1.8,25.3c-.1,2.6-.3,5.3-.5,8.1l-23-1,1.5-4.3c3.5-9.7,8.2-18.8,15.3-26.7a40.7,40.7,0,0,1,35-14.2c4.4.5,7.9,2.5,9,7.3,5.4-5.5,10.7-11,12-18.6.7-4-.7-6.1-4.8-7.6a37.4,37.4,0,0,0-13.2-1.9c-6.1.2-12,.6-17.8.9a3.7,3.7,0,0,1-1.7-.5c-5.7-3.5-11.8-4.1-18.1-3a34.9,34.9,0,0,0-12.6,4.7c-.4-6.8-.1-13.4,2.3-19.9a23,23,0,0,1,4.8-7.9,18.5,18.5,0,0,1,9.9-5.3l77-13.3Z" transform="translate(-302.9 -210.2)"/></g></g><path class="cls-4" d="M573.2,522c6.5,22.3,21,52,42,64.2,22.6,13.2,54.8,5.8,66.3-18.6,12.9-27.4-1.8-57.5-20.8-77.8-17.4-18.8-49-37-74.7-23.4" transform="translate(-302.9 -210.2)"/></g><g id="hair"><g id="Group_3-2" data-name="Group 3"><path id="Group_1-3" data-name="Group 1" class="cls-4" d="M518.7,211.7a2.2,2.2,0,0,1,2.4,2.2c-.1,11.3-3.5,20.1-14.5,24.9-5.3,2.3-29.1,1.7-39.4,5.3a2.3,2.3,0,0,0,.6,4.4c13.3.8,34.7-6.5,39.1,7.5s-2,43.4-8.7,50.9c-1.9,2.2-5.9-.5-4.4-3,5.3-8.9,14.9-36.6,5.3-48.1-5.9-7.1-22.8-.9-30.3-1.6-12.4-1.1-17.9-6.5-29.4-.2a2.2,2.2,0,0,1-3.3-1.9c-1.2-19,5.7-28.7,25.2-32.2S499.8,212.9,518.7,211.7Z" transform="translate(-302.9 -210.2)"/></g><path id="Group_2-2" data-name="Group 2" class="cls-4" d="M499.4,278.2c-1.7-1.8-3.9-3.5-6.5-3.8s-6.3,1.4-6.6,4.8,1.7,5.5,4,6.9a21,21,0,0,0,6.3,2.3,23.9,23.9,0,0,1,6.4,3.2c1.1.8,2.3,2,2.6-.4C506.1,287.1,502.1,280.9,499.4,278.2Z" transform="translate(-302.9 -210.2)"/><path id="Group_1-4" data-name="Group 1" class="cls-4" d="M510.6,277.1a10.4,10.4,0,0,1,5.1-3.9c2.1-.6,4.7,0,5.5,1.8s.1,3.6-1,5.1a24.9,24.9,0,0,1-4.3,3.6,41.9,41.9,0,0,0-5.8,6.1c-1.3,1.5-2.5,3.6-3.7,1.5C504.4,287.7,508.3,280.1,510.6,277.1Z" transform="translate(-302.9 -210.2)"/></g><path id="Group_3-3" data-name="Group 3" class="cls-4" d="M572.3,496.4c65.5-19.2,80.9-64.5,80.9-64.5-13.1,6-25.5-4.1-25.5-4.1,23.4-13.1,30.7-36.3,30.7-36.3-14.4,12.1-41.6,5.6-41.6,5.6-7.7-61-53.1-110.8-125.3-106.7C416,294.6,377,358.1,376.4,414.6c0,0-14.8,5.3-25.6-1.2,0,0-.9,16.3,16.4,27.6,0,0-6.7,8.2-14.5,6.1,0,0,6.1,27.8,67.7,46.4" transform="translate(-302.9 -210.2)"/><path class="cls-5" d="M363.8,418.3a36.3,36.3,0,0,0,11.3-1.6,104.8,104.8,0,0,0,11.5,49.5,94.2,94.2,0,0,1-13.4-22.9C370.9,437.6,363.8,418.3,363.8,418.3Z" transform="translate(-302.9 -210.2)"/><path class="cls-5" d="M653.2,431.9s-15.4,45.3-80.9,64.5c30-13.9,53.2-34.5,61.8-59.2-8.6,1.2-16.2-2.5-23.1-7.6,11.7-3.5,25.3-16.9,29.5-25-6.5,4.4-25.9,5.7-33.7,5.3-4.8-48.6-32.4-87.8-72.7-115.2,47.3,13.4,76.6,54.5,82.7,102.4,0,0,27.2,6.5,41.6-5.6,0,0-7.3,23.2-30.7,36.3C627.7,427.8,640.1,437.9,653.2,431.9Z" transform="translate(-302.9 -210.2)"/><path class="cls-4" d="M376.4,414.6c-.9,16.7,4.4,38.1,10.3,50" transform="translate(-302.9 -210.2)"/><path class="cls-6" d="M524.2,406.1c-14.9,0-12.7-13.7-8.1-24.3h.1c2.3-5.3,5.2-9.8,6.9-11.4,3.7,3.6,12.1,16.4,12.5,25.6C535.8,401.8,533,406.1,524.2,406.1Z" transform="translate(-302.9 -210.2)"/><path class="cls-7" d="M524.2,406.1c-14.9,0-12.7-13.7-8.1-24.3a64.4,64.4,0,0,0-2,7.2,18.9,18.9,0,0,0,0,8.2,9.8,9.8,0,0,0,9,7.4c12,.7,12.1-5.8,12.5-8.6C535.8,401.8,533,406.1,524.2,406.1Z" transform="translate(-302.9 -210.2)"/><path class="cls-8" d="M517.6,399.7a5.3,5.3,0,0,0,5.9,1.5,3.9,3.9,0,0,0,1.8-5.4c-.8-1.3-2.4-1.8-3.2-3.1s-.6-4.2-2.3-5.6-2.6-.7-3.4.7C514.5,391.1,515,397,517.6,399.7Z" transform="translate(-302.9 -210.2)"/><ellipse class="cls-9" cx="512.2" cy="361.8" rx="14.5" ry="16.2" transform="translate(-322.1 -181.4) rotate(-3.2)"/><circle class="cls-10" cx="203.1" cy="148.1" r="3.9"/><path class="cls-11" d="M539,344.5A60.9,60.9,0,0,1,498.8,356s-1.1-18.9,16-24.8C528.1,326.5,539,344.5,539,344.5Z" transform="translate(-302.9 -210.2)"/><path class="cls-12" d="M539,344.5A60.9,60.9,0,0,1,498.8,356" transform="translate(-302.9 -210.2)"/><ellipse class="cls-9" cx="421.8" cy="364.4" rx="12.7" ry="16.2" transform="translate(-322.3 -186.4) rotate(-3.2)"/><circle class="cls-10" cx="114.3" cy="156.2" r="3.9"/><path class="cls-11" d="M404,362.8a43.1,43.1,0,0,0,28.1-15.5s-9.1-12.2-21.7-6.2C400.7,345.7,404,362.8,404,362.8Z" transform="translate(-302.9 -210.2)"/><path class="cls-12" d="M404,362.8a43.1,43.1,0,0,0,28.1-15.5" transform="translate(-302.9 -210.2)"/><g id="Group_5" data-name="Group 5"><circle id="Group_4" data-name="Group 4" class="cls-13" cx="110.9" cy="155.4" r="30.6"/><circle id="Group_3-4" data-name="Group 3" class="cls-14" cx="110.9" cy="155.4" r="30.6"/><path id="Group_2-3" data-name="Group 2" class="cls-15" d="M408.8,363.3c-4.8,7.5-6.9,14.7-13.3,11.1s-8.5-14-3-22.2,15-10.5,21.1-5.5S413.6,355.9,408.8,363.3Z" transform="translate(-302.9 -210.2)"/><path id="Group_1-5" data-name="Group 1" class="cls-15" d="M422.9,376.2c3.9-3.8,6.1-7.8,9.5-4.8s3.2,9.5-1.2,13.7-10.4,4.2-13.3.4S419.1,380,422.9,376.2Z" transform="translate(-302.9 -210.2)"/></g><path class="cls-16" d="M480.3,380.7c5.9,16.6-9.9,45.1-29.1,41.2-7.1-1.4-1.2-14.6-3.4-25.4" transform="translate(-302.9 -210.2)"/><path class="cls-17" d="M454.8,393.5c4.3-.7,11.5.6,9.8,7.7s-7.6,17-13.9,16.2c-4.7-.6.7-16.1-3.7-22.9Z" transform="translate(-302.9 -210.2)"/><path class="cls-16" d="M465.7,399.6c-17.6,1.4-41.5,19.7-41.5,19.7-13.3-25.8,5.3-52.8,28.3-56.2,16.6-2.4,26.5,8.2,29,22.7" transform="translate(-302.9 -210.2)"/><path class="cls-15" d="M437.5,374.2c-9.9,7.6-7,12.4-6.2,11,5.7-9.4,33.5-10.8,25.8-15.8S440.6,371.9,437.5,374.2Z" transform="translate(-302.9 -210.2)"/><g id="Group_4-2" data-name="Group 4"><circle id="Group_4-3" data-name="Group 4" class="cls-13" cx="200.2" cy="155.4" r="30.6"/><circle id="Group_3-5" data-name="Group 3" class="cls-14" cx="200.2" cy="155.4" r="30.6"/><path id="Group_2-4" data-name="Group 2" class="cls-15" d="M498.2,363.3c-4.9,7.5-7,14.7-13.4,11.1s-8.5-14-3-22.2,15-10.5,21.1-5.5S503,355.9,498.2,363.3Z" transform="translate(-302.9 -210.2)"/><path id="Group_1-6" data-name="Group 1" class="cls-15" d="M512.3,376.2c3.9-3.8,6.1-7.8,9.4-4.8s3.2,9.5-1.2,13.7-10.3,4.2-13.3.4S508.4,380,512.3,376.2Z" transform="translate(-302.9 -210.2)"/></g><path id="Group_3-6" data-name="Group 3" class="cls-14" d="M444.4,363.9c5.9-5.8,23.4-5.1,27.4-1" transform="translate(-302.9 -210.2)"/><path class="cls-18" d="M478.3,535.5c6-3.9,12.1-8,17.1-13.2s8.9-12.1,9.4-19.1-2.9-14-9.2-16.1-14.2,1.2-19.5,6.6-8.6,12.2-11.8,19-15.1,23.5-10.2,30.9S472.3,539.3,478.3,535.5Z" transform="translate(-302.9 -210.2)"/><path class="cls-4" d="M625.6,516.7c-28.2,7.9-52.2-7.5-69.6-48-31.9-74.4-75.4-18.3-74.8,26.9s25,104.6,77.6,126.5c57,23.6,103.2-1.1,123.9-57.3" transform="translate(-302.9 -210.2)"/><path class="cls-19" d="M570.2,489.1c-4.1,3.9-10.4,3.2-15.8,2s-11.3-2.6-16,.6-5.9,10.2-6.7,16.2-2.8,13-8.5,15-9.2-.8-12.7-3.9-6.4-6.9-10.4-9.1a17.1,17.1,0,0,0-19.5,2.9c-4,3.8-5.9,9.2-7.6,14.4s-3.7,10.7-7.6,14.5l-2.4,1.9c-4,2.3-9,2.9-12.4,0s-3.5-6-3.1-9.5,1.7-6.8,3.1-10l9-20.8c1.6-3.8,3.3-7.5,4.9-11.3l11-25.4c4.8-11.1,9.7-22.5,18.2-31.2a39.4,39.4,0,0,1,18.2-10.7,25.7,25.7,0,0,1,14.3.3c9.2,3.1,15.3,11.6,20.9,19.7,2.9,4.3,5.7,9.6,8.9,14.4a41.7,41.7,0,0,0,6.6,7.7h.1C568.5,471.7,578.8,480.9,570.2,489.1Z" transform="translate(-302.9 -210.2)"/><path class="cls-20" d="M555.6,472.7c-5.2,1.8-10.3.4-14.3-.7h-.4c-3.1-.8-6.2-1.4-8.2-.3s-2.7,2.5-3.8,5.5l-.9,2.2a32.5,32.5,0,0,1-4.1,8.4c-3,4.2-8.6,7.7-14.4,6.2-3.2-.9-5.4-3.1-7.1-4.8s-1.3-1.3-1.8-1.8c-3.7-2.8-9.9-1.2-14.5,1.5-2.5,1.5-4.9,3.4-7.5,5.3a67.4,67.4,0,0,1-10.5,7.3,23.6,23.6,0,0,1-5.1,2,4.5,4.5,0,0,1-3.4-.1c1.6-3.8,3.3-7.5,4.9-11.3a67.5,67.5,0,0,0,8.2-5.7,68.2,68.2,0,0,1,8.5-6.1c6.9-4.2,17.8-6.9,25.6-.9a17.6,17.6,0,0,1,2.8,2.6,9.4,9.4,0,0,0,2.8,2.2c.8.2,2.4-.6,3.5-2.1a26.9,26.9,0,0,0,2.7-5.9,27.7,27.7,0,0,0,1-2.6c2.2-5.3,5-8.9,8.7-10.8,5.8-3.1,12.3-1.4,15.4-.5h.4c3.2.9,6.3,1.7,8.5.9a2.7,2.7,0,0,0,1.6-1.7,5.5,5.5,0,0,1,1.8-2.4,41.7,41.7,0,0,0,6.6,7.7A13,13,0,0,1,555.6,472.7Z" transform="translate(-302.9 -210.2)"/><path class="cls-21" d="M511.9,424.7c-2.8,2.2-5.4,4.2-6.4,5.2a125.4,125.4,0,0,0-13.4,16.5c-4.3,6.3-8.1,13.6-7.4,21.2.3,3.7,1.6,7.4,1.4,11.1s-2.6,7.8-4.9,11.4l-12.8,20.2c-2.8,4.5-5.7,9-7.4,14.1s-2.1,10.7,0,15.6a32.4,32.4,0,0,0,2,3.6c-4,2.3-9,2.9-12.4,0s-3.5-6-3.1-9.5,1.7-6.8,3.1-10l9-20.8c1.6-3.8,3.3-7.5,4.9-11.3l11-25.4c4.8-11.1,9.7-22.5,18.2-31.2A39.4,39.4,0,0,1,511.9,424.7Z" transform="translate(-302.9 -210.2)"/><path class="cls-5" d="M681.9,567.1c-21.2,54.5-66.9,78.3-123.1,55-41.3-17.2-65.1-57.5-73.8-95.8,12.5,33.3,36.5,64.5,73.1,78.8C610,625.3,654.5,609.2,681.9,567.1Z" transform="translate(-302.9 -210.2)"/></svg>