<svg id="Layer_1" data-name="Layer 1" xmlns="http://www.w3.org/2000/svg" xmlns:xlink="http://www.w3.org/1999/xlink" viewBox="0 0 466.5 523.5"><defs><style>.cls-1,.cls-9{fill:none;}.cls-2{fill:#212020;}.cls-3{clip-path:url(#clip-path);}.cls-4{fill:#fec216;}.cls-4,.cls-9{stroke:#000;}.cls-11,.cls-12,.cls-4,.cls-6,.cls-9{stroke-linecap:round;stroke-linejoin:round;}.cls-11,.cls-12,.cls-4,.cls-6{stroke-width:3px;}.cls-5{fill:#ff4900;}.cls-13,.cls-5,.cls-8{opacity:0.2;}.cls-6{stroke:#626e7c;}.cls-10,.cls-7,.cls-8{fill:#fff;}.cls-9{stroke-width:6px;}.cls-10{opacity:0.5;}.cls-11,.cls-12{stroke:#ba3905;}.cls-12{fill:#fe6e16;}.cls-13{fill:#fca01a;}</style><clipPath id="clip-path" transform="translate(-302.9 -205.2)"><circle id="Ellipse_1" data-name="Ellipse 1" class="cls-1" cx="505.7" cy="479.3" r="202.7"/></clipPath></defs><title>001-hi</title><circle id="Ellipse_1-2" data-name="Ellipse 1" class="cls-2" cx="202.7" cy="274.1" r="202.7"/><g class="cls-3"><path class="cls-4" d="M388,474.1c-20.8-6.6-45.5,35-61,87.8s-10.2,105.3-6.1,129.6c11.3,67.8,85.4,29.2,75.4-35.2C380.9,558.6,413.4,482,388,474.1Z" transform="translate(-302.9 -205.2)"/><path class="cls-4" d="M369.8,514.6c-22.3,38.8-25.5,122.1,1,178.7,0,0,40.2,12.7,125.8,7.3s120.6-16.3,120.6-16.3c6.1-78.5,6.7-148.3-13.7-193.1-9-19.6-20.2-35.5-33.5-47a92.7,92.7,0,0,0-21.9-14.3c-28.8-13.3-103.6-3.8-137.4,18.6a81.4,81.4,0,0,0-17.4,15.6" transform="translate(-302.9 -205.2)"/><path class="cls-5" d="M615.4,683c-3.5,1.1-10.8,2.6-27.6,5.9,15-92.4-8-156.9-27.4-206.7-8.9-22.7-20.1-40.9-33.4-54a50,50,0,0,0-4.1-3.9c7.1,1,13,2.5,17.5,4.6A90.1,90.1,0,0,1,562,443c13,11.3,24.1,27,33,46.4C615.7,534.8,624,596.7,615.4,683Z" transform="translate(-302.9 -205.2)"/><path class="cls-2" d="M494,521.6c-.3,7.3-1.1,14.6-4.8,21.3s-10.6,13.1-19.6,14.3l-43.2,5.5a4.1,4.1,0,0,0-3.9,3c2.3.9,4.6,2.1,7,2.8s2.7,0,4.1-.1l16.9-1.6a31.3,31.3,0,0,1,12.5,1.3c4.5,1.5,7.9,4.3,8.7,9.2a17.9,17.9,0,0,1-.4,6.5c-3.8,13.8-11.6,24.1-24.3,29.6.4-2.1,1.1-3.9,1.3-5.8.6-5.8-1.8-8.4-7.5-8.4s-10.9,1.9-15.8,4.3c-2.1,1.1-4.1,2.3-6,3.5a2.2,2.2,0,0,0-.9,1.7c-.7,9.5-1.2,18.9-1.8,28.2-.2,3-.4,6-.5,9.1l-23.4-1.1c.5-1.7.9-3.3,1.5-4.8,3.5-10.8,8.3-21,15.5-29.9,5.5-6.7,12.2-11.9,20.9-14.5a38,38,0,0,1,14.7-1.3c4.5.6,8,2.8,9.1,8.2,5.5-6.2,10.9-12.3,12.2-20.8.7-4.5-.7-6.8-4.9-8.4a32.6,32.6,0,0,0-13.4-2.2c-6.1.2-12.2.7-18,1a3.4,3.4,0,0,1-1.7-.5c-5.9-4-12.1-4.7-18.5-3.4a34.2,34.2,0,0,0-12.8,5.3c-.4-7.7,0-15,2.4-22.3a25.5,25.5,0,0,1,4.9-8.8,17.1,17.1,0,0,1,10-5.9l78.3-14.9Z" transform="translate(-302.9 -205.2)"/></g><path class="cls-4" d="M534,449.2c24.5-13.4,57.9.4,85,21.7,22.4,17.7,30.9,29,46.5,57.3,21.3,38.6-15.6,92.2-66.1,62.2-26.5-15.7-45.9-45.9-56.4-74.1" transform="translate(-302.9 -205.2)"/><path class="cls-4" d="M620.2,511.3s26.7-34.7,37.7-67.7,12.5-78.8,48.6-72.2,47.6,43.7,44.2,98S729.1,556.2,703.5,582c-23.5,23.8-62.1,21.5-83.3,16.4" transform="translate(-302.9 -205.2)"/><path class="cls-4" d="M715.6,402.6c14.6-19.1,23.8-47,28.3-60.7s26.8-4.8,23.8,20.2S750.4,436,750.4,436" transform="translate(-302.9 -205.2)"/><path class="cls-4" d="M690.3,399.9c11.2-24.1,21.1-65.2,23.4-81.3s24.8-11,25.6,17-10.8,74.8-10.8,74.8" transform="translate(-302.9 -205.2)"/><path class="cls-4" d="M668.3,405.5c7.3-22.1,11.8-70.5,11.8-84.5s22.1-12.6,26.6,11.4-1.2,72.4-1.2,72.4" transform="translate(-302.9 -205.2)"/><path class="cls-4" d="M676.3,413.9s-18.3-4.2-32-8.8c-22.1-7.2-42.4,11.5-24,22.7,32.3,19.5,34.6,40.6,34.6,40.6" transform="translate(-302.9 -205.2)"/><path class="cls-4" d="M392.2,207.1a2.5,2.5,0,0,1,3.6.8c6.4,10.9,8.1,21.2.3,32.2-3.7,5.2-26.9,18.3-34.7,27.6a2.5,2.5,0,0,0,3.1,3.9c13.2-6.9,29.6-26.1,41.8-15.2s6.9,45.2,4.8,56.3c-.6,3.2-5.9,2.8-5.9-.4,0-11.6,9.3-46.2-6.5-51.7-9.7-3.4-22.4,12.3-30,15.9-12.5,6-20.8,4-28.2,16.6a2.5,2.5,0,0,1-4.3.1c-12-17.5-11-30.8,5.7-45.3S374.7,219.1,392.2,207.1Z" transform="translate(-302.9 -205.2)"/><path class="cls-4" d="M404.1,274.9c-2.3-1.5-5.2-2.7-8.1-2.3s-6.4,3.4-5.8,7.1,3.5,5.5,6.4,6.4a32.4,32.4,0,0,0,7.4.7,25.7,25.7,0,0,1,7.8,1.6c1.5.5,3.1,1.4,2.7-1.2C413.9,282.6,407.8,277.1,404.1,274.9Z" transform="translate(-302.9 -205.2)"/><path class="cls-4" d="M415.9,270.5a11.8,11.8,0,0,1,4.4-5.7c2.1-1.2,5-1.3,6.5.5s1.1,3.8.3,5.7a36.4,36.4,0,0,1-3.5,5.2,43.8,43.8,0,0,0-4.7,8.1c-.9,2.1-1.6,4.7-3.5,2.8C412.3,283.7,414.2,274.4,415.9,270.5Z" transform="translate(-302.9 -205.2)"/><path class="cls-4" d="M546,465.3c52.7-31.9,56.5-73.9,56.5-73.9-9.2,9.6-21.1,5.7-21.1,5.7,19.4-15.4,13.7-46.2,13.7-46.2-8,15.4-28,17.6-28,17.6-11.4-57.6-68.7-102.7-138.3-89.1-71.6,14.1-103.2,85.7-88.6,135.3,0,0-18.8-.9-29.1-8.6,0,0,4.3,27.4,23.1,36.8,0,0-12,6-19.7,3.1,0,0,15.4,33,79.2,43.6" transform="translate(-302.9 -205.2)"/><path class="cls-5" d="M375,308l-.7,1.5c-.6,1-1,2.1-1.7,3.1-15.3,26-34.9,62.6-18.9,111.7l-22.5-1.4h-.4a1.8,1.8,0,0,0-1.5.8,1.7,1.7,0,0,0-.1,1.7l13.2,23.2-9.3,2.2-2.1.6a1.6,1.6,0,0,0-.6,2.9l37.7,27.5c-31.8-10.3-45.6-26.5-50.2-33.3,7.7.6,16.6-3.8,17-4a1.6,1.6,0,0,0,1-1.5,1.8,1.8,0,0,0-1-1.5c-13.6-6.8-19.4-24-21.3-31.7,10.7,5.9,25.8,6.6,26.5,6.7a1.5,1.5,0,0,0,1.4-.7,2,2,0,0,0,.3-1.5C331.5,379,345.4,335.2,375,308Z" transform="translate(-302.9 -205.2)"/><path class="cls-5" d="M600,395.7c-2.3,9.8-10.3,33.7-37.6,56q13.1-20.2,26-40.5a1.5,1.5,0,0,0-.2-2,1.7,1.7,0,0,0-1.2-.5,1.2,1.2,0,0,0-.8.2,47.6,47.6,0,0,1-23.1,5.7,135.2,135.2,0,0,0,16.6-34.7,1.7,1.7,0,0,0-.6-1.9,1.8,1.8,0,0,0-2,0,30.9,30.9,0,0,1-25.3,5.2c5.1-59.1-63.6-97.4-67.1-100.4,41.1,11.3,72.5,44.5,80.8,86.1a1.6,1.6,0,0,0,1.8,1.3c.8-.1,17.4-2.1,26.6-14.4.7,8.9.4,28.8-13.6,40a1.4,1.4,0,0,0-.6,1.5,1.4,1.4,0,0,0,1.1,1.3A22.8,22.8,0,0,0,600,395.7Z" transform="translate(-302.9 -205.2)"/><circle class="cls-6" cx="95.2" cy="179" r="19.2"/><circle class="cls-7" cx="86.4" cy="178" r="5.7"/><circle class="cls-6" cx="188.3" cy="145.1" r="19.2"/><circle class="cls-7" cx="179.5" cy="144.1" r="5.7"/><g id="Layer_3" data-name="Layer 3"><g id="Group_5" data-name="Group 5"><circle id="Group_4" data-name="Group 4" class="cls-8" cx="96.1" cy="184" r="34.2"/><circle id="Group_3" data-name="Group 3" class="cls-9" cx="96.1" cy="184" r="34.2"/><path id="Group_2" data-name="Group 2" class="cls-10" d="M392.9,388.5c-2.6,9.6-2.4,17.9-10.4,16.3s-13.7-12.1-10.7-22.7,12.5-16.2,20.6-13S395.6,378.9,392.9,388.5Z" transform="translate(-302.9 -205.2)"/><path id="Group_1" data-name="Group 1" class="cls-10" d="M412.3,397.5c2.9-5.4,3.9-10.4,8.4-8.4s6.6,9,3.4,15-9.6,8-14,5S409.5,402.8,412.3,397.5Z" transform="translate(-302.9 -205.2)"/></g><g id="Group_4-2" data-name="Group 4"><circle id="Group_4-3" data-name="Group 4" class="cls-8" cx="189.9" cy="149.6" r="34.2"/><circle id="Group_3-2" data-name="Group 3" class="cls-9" cx="189.9" cy="149.6" r="34.2"/><path id="Group_2-2" data-name="Group 2" class="cls-10" d="M486.7,354.1c-2.6,9.6-2.4,17.9-10.4,16.3s-13.8-12-10.8-22.7,12.5-16.1,20.6-12.9S489.3,344.5,486.7,354.1Z" transform="translate(-302.9 -205.2)"/><path id="Group_1-2" data-name="Group 1" class="cls-10" d="M506.1,363.1c2.8-5.4,3.8-10.4,8.4-8.3s6.6,9,3.4,14.9-9.6,8-14.1,5S503.2,368.4,506.1,363.1Z" transform="translate(-302.9 -205.2)"/></g><path id="Group_3-3" data-name="Group 3" class="cls-9" d="M431,377.1c4.3-8.2,23.2-13.4,28.8-10.3" transform="translate(-302.9 -205.2)"/></g><path class="cls-11" d="M480.3,383.7c-3.6-13.3-19.4-9.8-31.5-5.7-14,4.6-27.7,14.9-21.2,27.5,10.1,19.7,33.2,37.4,43,34.9S485.8,403.8,480.3,383.7Z" transform="translate(-302.9 -205.2)"/><path class="cls-12" d="M480.3,383.7c-2.3-13.5-19.4-9.8-31.5-5.7-14,4.6-28.5,15.3-21.2,27.5,3.6,6,21.6,12.8,31.1,16.1a7.4,7.4,0,0,0,9-3.5C472.6,409,481.6,391,480.3,383.7Z" transform="translate(-302.9 -205.2)"/><path class="cls-13" d="M467.7,418.1a7.4,7.4,0,0,1-9,3.5c-9.5-3.3-27.5-10.1-31.1-16.1a12.3,12.3,0,0,1-1.9-6.3c4.5,5.9,24,12.7,33.2,10.6S478,386.3,478,378.3a11.2,11.2,0,0,1,2.3,5.4C481.6,391,472.6,409,467.7,418.1Z" transform="translate(-302.9 -205.2)"/><path class="cls-10" d="M450.5,381.8c-4.3,1.5-13.1,6-12.7,7.7s27.9-7.8,27.6-9.7S454.7,380.4,450.5,381.8Z" transform="translate(-302.9 -205.2)"/></svg>