<svg id="Layer_1" data-name="Layer 1" xmlns="http://www.w3.org/2000/svg" xmlns:xlink="http://www.w3.org/1999/xlink" viewBox="0 0 447.6 505.8"><defs><style>.cls-1,.cls-9{fill:none;}.cls-2{fill:#212020;}.cls-3{clip-path:url(#clip-path);}.cls-4{fill:#fec216;}.cls-4,.cls-6,.cls-9{stroke:#000;}.cls-11,.cls-12,.cls-4,.cls-6,.cls-9{stroke-linecap:round;stroke-linejoin:round;}.cls-11,.cls-12,.cls-4,.cls-6{stroke-width:3px;}.cls-5{fill:#ff4900;}.cls-13,.cls-5,.cls-8{opacity:0.2;}.cls-10,.cls-7,.cls-8{fill:#fff;}.cls-9{stroke-width:6px;}.cls-10{opacity:0.5;}.cls-11,.cls-12{stroke:#ba3905;}.cls-12{fill:#fe6e16;}.cls-13{fill:#fca01a;}</style><clipPath id="clip-path" transform="translate(-281.9 -198.7)"><circle id="Ellipse_1" data-name="Ellipse 1" class="cls-1" cx="505.7" cy="479.3" r="202.7"/></clipPath></defs><title>laugh</title><circle id="Ellipse_1-2" data-name="Ellipse 1" class="cls-2" cx="223.8" cy="280.6" r="202.7"/><g class="cls-3"><path class="cls-4" d="M436.1,481.2c-20.2-28.3-72.9-12.9-109.3,30.9-32.6,39.3-50.2,92.2-41,138.9,11.7,58.7,75.8,67.6,102.5,27.3C432.2,612.3,459.6,514.2,436.1,481.2Z" transform="translate(-281.9 -198.7)"/><path class="cls-5" d="M395,652.8c-12.4,17.3-34.8,21.8-54.9,16.5a66.7,66.7,0,0,1-4.5-12.4c-6.8-27.5-1.7-68.5,20.4-111.9,21.3-41.6,51.6-75.2,75.4-73.5a26.3,26.3,0,0,1,6,5.6C461.6,507.1,436.8,594.5,395,652.8Z" transform="translate(-281.9 -198.7)"/><path class="cls-4" d="M575.2,481.2c20.2-28.3,72.9-12.9,109.3,30.9,32.7,39.3,50.2,92.2,41,138.9-11.6,58.7-75.8,67.6-102.5,27.3C579.1,612.3,551.7,514.2,575.2,481.2Z" transform="translate(-281.9 -198.7)"/><path class="cls-5" d="M616.3,652.8c12.5,17.3,34.8,21.8,54.9,16.5a66.7,66.7,0,0,0,4.5-12.4c6.9-27.5,1.7-68.5-20.4-111.9-21.3-41.6-51.6-75.2-75.4-73.5a26.3,26.3,0,0,0-6,5.6C549.7,507.1,574.5,594.5,616.3,652.8Z" transform="translate(-281.9 -198.7)"/><g id="body"><path id="Group_3" data-name="Group 3" class="cls-4" d="M387.5,498.9c-20.4,30.3-55.7,111.6-43.5,174.8,0,0,42.3,18.6,150.5,17.1,124.1-1.7,176.9-15.7,176.9-15.7.8-79.7-19.7-135.7-52.2-180.9-19.5-27.1-58.5-46-101.2-48-20.1-1-62.9-.9-98.3,21.5" transform="translate(-281.9 -198.7)"/></g><path class="cls-5" d="M381.9,507.9c7.2-10.6,21.1-28.2,29.9-34.9a124.1,124.1,0,0,0-11.7,17.3c-18,32.2-49.2,117.7-42.1,187.9a116,116,0,0,1-14-4.5C331.8,610.5,361.5,538.2,381.9,507.9Z" transform="translate(-281.9 -198.7)"/><path class="cls-5" d="M671.4,675.1s-4.9,1.3-15.2,3.2c-1.6-85.1-20.5-144.9-49.1-193.1a104.7,104.7,0,0,0-7.7-11.1,96.5,96.5,0,0,1,19.8,20.1C651.7,539.4,672.2,595.4,671.4,675.1Z" transform="translate(-281.9 -198.7)"/><g id="Group_1" data-name="Group 1"><path id="Group_1-2" data-name="Group 1" class="cls-2" d="M550.3,556.4c-.2,7.5-.9,14.8-4.3,21.2s-9.7,12-18,12.2l-42.9,1.4a3.7,3.7,0,0,0-3.9,2.7,74.5,74.5,0,0,0,7.5,3.7c1.3.5,2.8.2,4.2.2h16.9a29,29,0,0,1,12.1,2.4c4.2,1.9,7.5,4.9,8.3,9.7a16.6,16.6,0,0,1-.3,6.3c-3.2,13-10.2,22.3-22.1,27.1a41.1,41.1,0,0,0,1.1-5.5c.4-5.5-2-8.1-7.5-8.4s-10.8,1.3-15.5,3.4a43,43,0,0,0-6,3.2,1.9,1.9,0,0,0-.8,1.6c-.2,9.3-.2,18.4-.3,27.3v8.6l-24.1-1.1,1.2-4.6c3-10.5,7.3-20.4,14.3-29,5.3-6.5,11.9-11.4,20.6-13.4a35.2,35.2,0,0,1,14.5-.5c4.4.8,7.8,3.2,9,8.4,5-5.7,9.9-11.2,11-19.4.5-4.3-.8-6.7-4.8-8.6a31.9,31.9,0,0,0-13-3.2c-6.1-.4-12.2-.4-18.2-.6a4.1,4.1,0,0,1-1.7-.7,27.2,27.2,0,0,0-19.8-5.3,33.5,33.5,0,0,0-13.7,4.4c-1-8.3-1.2-16.4.9-24.1a22.5,22.5,0,0,1,4.8-9.2,15.3,15.3,0,0,1,10.8-5.2c24.9-1.7,51-3.3,78.5-5Z" transform="translate(-281.9 -198.7)"/></g></g><g id="hair"><g id="Group_3-2" data-name="Group 3"><path id="Group_1-3" data-name="Group 1" class="cls-4" d="M480.3,200.5a2.4,2.4,0,0,1,3.3,1c5.5,10.5,6.7,20.3-1.3,30.2-3.7,4.7-26.1,15.9-34,24.3a2.4,2.4,0,0,0,2.8,3.7c12.7-5.8,29.1-23,40-12.1s4.3,42.8,1.8,53.1c-.8,2.9-5.8,2.3-5.6-.7.6-10.8,11-42.9-3.5-48.9-9-3.6-21.7,10.4-29,13.5-12,5-19.8,2.7-27.4,14.1a2.3,2.3,0,0,1-4,0c-10.3-17.1-8.8-29.5,7.6-42.3S463.3,211,480.3,200.5Z" transform="translate(-281.9 -198.7)"/></g><path id="Group_2" data-name="Group 2" class="cls-4" d="M487.6,278.2c-1.8-1.8-4.2-3.6-6.9-4s-6.6,1.5-7,5.1,1.9,5.8,4.3,7.3a27.3,27.3,0,0,0,6.5,2.4,25.3,25.3,0,0,1,6.8,3.3c1.2.8,2.5,2.1,2.8-.4C494.6,287.6,490.3,281.1,487.6,278.2Z" transform="translate(-281.9 -198.7)"/><path id="Group_1-4" data-name="Group 1" class="cls-4" d="M499.3,277.1a10.5,10.5,0,0,1,5.4-4.1c2.2-.7,4.9,0,5.8,1.9s.1,3.8-1.1,5.3a34.1,34.1,0,0,1-4.5,3.9,33.1,33.1,0,0,0-6.1,6.3c-1.4,1.6-2.7,3.8-3.9,1.6C492.8,288.2,496.8,280.2,499.3,277.1Z" transform="translate(-281.9 -198.7)"/></g><g id="head"><path id="Group_3-3" data-name="Group 3" class="cls-4" d="M575.4,505c59.8-22,77.3-60.8,77.3-60.8-12.6,5.4-20.6-6.6-20.6-6.6,22.7-11.8,30.5-34.7,30.5-34.7-14,11.2-39.3,2.9-39.3,2.9-.2-60.6-49.4-117.8-122.6-117.7-75.4.2-121.5,66.5-116.6,119.6,0,0-24.2,4.1-35-3.6a73.6,73.6,0,0,0,23.3,31s-10.7,12.8-18.7,10.1c0,0,7.2,25.7,69.9,49" transform="translate(-281.9 -198.7)"/><path id="Group_2-2" data-name="Group 2" class="cls-5" d="M440.5,306.5l-1,1.3c-.8.9-1.5,1.9-2.3,2.9-20.7,23.2-47.8,56.5-41.3,109.4-7.5-1.9-17.9,1-25.6.7h-.4a1.9,1.9,0,0,0-1.6.9,1.7,1.7,0,0,0,0,1.7c4.8,7.9,8.4,10.3,11.3,19-3.2.2-3.4,6.3-6.6,7.1l-2.2.6a2,2,0,0,0-1.3,1.4,1.7,1.7,0,0,0,.8,1.7c13.2,9.1,17.9,16.2,28.9,28-30.2-16.8-37-26.8-41.9-33.6,7.9.4,15.1-10.7,15.6-10.8a1.8,1.8,0,0,0,1.2-1.3,1.6,1.6,0,0,0-.6-1.7c-12.5-9.7-19.5-18.2-21.7-26.1,11.2,5.8,31.2,1.5,31.9,1.7a1.7,1.7,0,0,0,1.5-.4,1.3,1.3,0,0,0,.6-1.4C382.3,369.8,405.1,328.2,440.5,306.5Z" transform="translate(-281.9 -198.7)"/><path id="Group_1-5" data-name="Group 1" class="cls-5" d="M648.6,447.3c-6.2,8.3-14.5,24.7-46.6,41.9,11.5-11.9,15.4-22.9,29.2-32a1.9,1.9,0,0,0,.7-2,1.7,1.7,0,0,0-1-1l-.8-.2c-8.2.7-11.9-.6-20-2.3,9.4-9.4,17.1-17.7,25.9-27.8a1.6,1.6,0,0,0,.2-2,1.8,1.8,0,0,0-1.9-.8c-8.9,2-21.2.4-29.5-3.4,16.9-58.9-45.2-111.4-48.1-115.1,39.5,19.6,64.7,59.5,64.8,103.2a1.8,1.8,0,0,0,1.6,1.8c.8,0,22.5,7.3,36.4-.5-3.1,8.7-11.8,20.4-28.2,28.9a2,2,0,0,0-1,1.5,2,2,0,0,0,.9,1.6C631.7,439.3,637.5,449.5,648.6,447.3Z" transform="translate(-281.9 -198.7)"/><path class="cls-4" d="M384.1,407.7a163.6,163.6,0,0,0,2.8,19.3" transform="translate(-281.9 -198.7)"/><path class="cls-4" d="M623.3,405.8c-.2,8-2.4,21.2-2.4,21.2" transform="translate(-281.9 -198.7)"/></g><g id="face"><g id="Group_2-3" data-name="Group 2"><path id="Group_2-4" data-name="Group 2" class="cls-6" d="M479,384.7c-.1,9.9-8.9,6.4-18.8,6.2s-17.4,3.1-17.3-6.9a18.1,18.1,0,0,1,36.1.7Z" transform="translate(-281.9 -198.7)"/><circle id="Group_1-6" data-name="Group 1" class="cls-7" cx="173.6" cy="179.9" r="6.2"/></g></g><g id="face-2" data-name="face"><g id="Group_2-5" data-name="Group 2"><path id="Group_2-6" data-name="Group 2" class="cls-6" d="M566.6,384.7c-.2,9.9-8.9,6.4-18.9,6.2s-17.4,3.1-17.2-6.9a18.1,18.1,0,0,1,36.1.7Z" transform="translate(-281.9 -198.7)"/><circle id="Group_1-7" data-name="Group 1" class="cls-7" cx="261.1" cy="179.9" r="6.2"/></g></g><g id="Layer_3" data-name="Layer 3"><g id="Group_4" data-name="Group 4"><circle id="Group_4-2" data-name="Group 4" class="cls-8" cx="269.7" cy="187.4" r="32.2"/><circle id="Group_3-4" data-name="Group 3" class="cls-9" cx="269.7" cy="187.4" r="32.2"/><path id="Group_2-7" data-name="Group 2" class="cls-10" d="M546.4,383.5c-5.4,7.7-7.9,15.1-14.5,11.1s-8.3-15.1-2.2-23.5,16.3-10.3,22.4-4.8S551.8,376,546.4,383.5Z" transform="translate(-281.9 -198.7)"/><path id="Group_1-8" data-name="Group 1" class="cls-10" d="M560.6,397.8c4.3-3.9,6.8-8,10.1-4.7s3,10.1-1.8,14.3-11.1,4-14-.1S556.4,401.6,560.6,397.8Z" transform="translate(-281.9 -198.7)"/></g><g id="Group_4-3" data-name="Group 4"><circle id="Group_4-4" data-name="Group 4" class="cls-8" cx="176" cy="187.1" r="32.2"/><circle id="Group_3-5" data-name="Group 3" class="cls-9" cx="176" cy="187.1" r="32.2"/><path id="Group_2-8" data-name="Group 2" class="cls-10" d="M452.8,383.2c-5.5,7.7-8,15.1-14.5,11s-8.3-15-2.2-23.4,16.3-10.3,22.4-4.8S458.1,375.6,452.8,383.2Z" transform="translate(-281.9 -198.7)"/><path id="Group_1-9" data-name="Group 1" class="cls-10" d="M467,397.4c4.2-3.8,6.7-7.9,10.1-4.6s2.9,10.1-1.8,14.3-11.1,3.9-14-.1S462.7,401.2,467,397.4Z" transform="translate(-281.9 -198.7)"/></g><path id="Group_3-6" data-name="Group 3" class="cls-9" d="M489.8,385.9c6.4-5.8,24.8-4.3,28.8.2" transform="translate(-281.9 -198.7)"/></g><g id="lips"><path id="Group_4-5" data-name="Group 4" class="cls-11" d="M532.3,407.1c1.7-7.8-14.4-10.7-27-11.3-14.5-.9-31.1,3.9-29.3,12,2.9,13.4,12.3,36.1,28.2,36.1C522.7,443.9,529.6,419.1,532.3,407.1Z" transform="translate(-281.9 -198.7)"/><path id="Group_3-7" data-name="Group 3" class="cls-12" d="M532.3,407.1c2.7-7.7-14.4-10.7-27-11.3-14.5-.9-31.7,4-29.3,12,1.1,3.9,15.4,11,23.8,11.4a75.3,75.3,0,0,0,9.5,0C519,418.8,530.8,411.2,532.3,407.1Z" transform="translate(-281.9 -198.7)"/><path id="Group_2-9" data-name="Group 2" class="cls-13" d="M509.3,419.2a75.3,75.3,0,0,1-9.5,0c-8.2-.4-22.7-7.5-23.8-11.4a4.9,4.9,0,0,1,.4-3.8c2.1,4.1,18.4,14.2,27.7,14.2s25.1-10.2,28-14.5a4.4,4.4,0,0,1,.2,3.4C530.8,411.2,518.8,418.7,509.3,419.2Z" transform="translate(-281.9 -198.7)"/><path id="Group_1-10" data-name="Group 1" class="cls-7" d="M503.2,400c-4.4-.3-14.1.9-14.4,2.9s28.5,3.1,28.9,1S507.6,400.2,503.2,400Z" transform="translate(-281.9 -198.7)"/></g></svg>