<svg id="Layer_1" data-name="Layer 1" xmlns="http://www.w3.org/2000/svg" xmlns:xlink="http://www.w3.org/1999/xlink" viewBox="0 0 442.2 489.3"><defs><style>.cls-1,.cls-6,.cls-8{fill:none;}.cls-2{fill:#212020;}.cls-3{clip-path:url(#clip-path);}.cls-4{fill:#fec216;}.cls-4,.cls-6,.cls-8{stroke:#000;}.cls-10,.cls-12,.cls-13,.cls-4,.cls-8{stroke-linecap:round;stroke-linejoin:round;}.cls-10,.cls-12,.cls-13,.cls-4{stroke-width:3px;}.cls-5{fill:#ff4900;}.cls-5,.cls-7{opacity:0.2;}.cls-6{stroke-miterlimit:10;}.cls-7,.cls-9{fill:#fff;}.cls-8{stroke-width:6px;}.cls-9{opacity:0.5;}.cls-10{fill:#fe6e16;}.cls-10,.cls-12{stroke:#ba3905;}.cls-11{fill:#ba3905;}.cls-11,.cls-14{opacity:0.1;}.cls-13{fill:#e11311;stroke:#662a28;}.cls-14{fill:#662a28;}</style><clipPath id="clip-path" transform="translate(-301.4 -217)"><circle id="Ellipse_1" data-name="Ellipse 1" class="cls-1" cx="505.7" cy="479.3" r="202.7"/></clipPath></defs><title>love</title><circle id="Ellipse_1-2" data-name="Ellipse 1" class="cls-2" cx="204.2" cy="262.3" r="202.7"/><g class="cls-3"><path class="cls-4" d="M421.9,487c-15.8-11.4-48.5,17-76.6,57.5s-38.2,86.8-41.6,108.6c-9.4,60.9,66.4,54.3,90.5,1.2C428,579.6,441.3,500.9,421.9,487Z" transform="translate(-301.4 -217)"/><path class="cls-5" d="M394.2,654.3c-10.6,23.4-31.2,37.7-50.1,41.3a84.2,84.2,0,0,0,23.4-28C397.3,610,420.7,540.5,426.7,493,438.4,516.5,424.7,587,394.2,654.3Z" transform="translate(-301.4 -217)"/><g id="body"><path id="Group_3" data-name="Group 3" class="cls-4" d="M390.5,522.7c-18.6,34.4-14.1,120,11.1,167.8,0,0,35.5,12.7,112.6,14.1,81.2,1.4,116.3-5.3,116.3-5.3,27.8-80.5,17.3-151.7-6.9-194.3-14.8-26-44.9-41.3-78-53-30.8-11-89.8-10.5-126.4,24.5" transform="translate(-301.4 -217)"/><path id="Group_2" data-name="Group 2" class="cls-5" d="M629.4,697.7c-1.1,3.4-14.9,1.9-28.2,3.4,13.7-29.1,35-146.8,6.3-213.3a80.5,80.5,0,0,1,16.2,20.6C631.1,521.6,664.6,588.6,629.4,697.7Z" transform="translate(-301.4 -217)"/><g id="Group_1" data-name="Group 1"><path id="Group_1-2" data-name="Group 1" class="cls-2" d="M540.5,529.7c-.2,6.6-1,13.1-4.6,19.1s-10.5,11.8-19.3,12.8L474,566.5a4.2,4.2,0,0,0-3.8,2.7c2.3.9,4.5,1.9,6.9,2.6a10.9,10.9,0,0,0,4-.2l16.7-1.3a32,32,0,0,1,12.3,1.1c4.4,1.4,7.7,3.9,8.5,8.2a12.6,12.6,0,0,1-.4,5.8c-3.7,12.4-11.3,21.6-23.9,26.5a34.7,34.7,0,0,0,1.3-5.1c.6-5.2-1.8-7.5-7.4-7.5a36.5,36.5,0,0,0-15.5,3.8,54.9,54.9,0,0,0-5.9,3.1,2,2,0,0,0-.9,1.6c-.7,8.4-1.2,16.9-1.8,25.2-.2,2.7-.4,5.4-.5,8.1l-23-1c.5-1.5.9-2.9,1.4-4.3,3.5-9.6,8.2-18.7,15.3-26.7a41.8,41.8,0,0,1,20.6-13,38.4,38.4,0,0,1,14.4-1.1c4.5.5,8,2.4,9,7.3,5.5-5.6,10.7-11,12-18.7.7-3.9-.7-6-4.8-7.5a35,35,0,0,0-13.2-1.9c-6,.2-11.9.6-17.7.9a3.4,3.4,0,0,1-1.7-.5c-5.7-3.5-11.9-4.2-18.2-3.1a35.8,35.8,0,0,0-12.6,4.8c-.4-6.8,0-13.5,2.4-19.9a20.8,20.8,0,0,1,4.8-7.9,16.7,16.7,0,0,1,9.8-5.3l77.1-13.4Z" transform="translate(-301.4 -217)"/></g></g><path class="cls-4" d="M577.8,540.6c6.4,33.5,23.4,82.5,52.6,114,31.6,34.1,80.2,49,100.9,26.4,23.1-25.3,5.8-74.9-19.2-115.4-23-37.2-66.9-92.5-138.8-92.5" transform="translate(-301.4 -217)"/><path class="cls-5" d="M738.6,669.5a40.8,40.8,0,0,1-7.3,11.5c-20.7,22.6-69.3,7.7-100.9-26.4-25.8-27.9-42.2-69.5-50-101.9,11.7,28,29.7,57.5,54.8,78.5C663.9,655.2,705.6,670.4,738.6,669.5Z" transform="translate(-301.4 -217)"/></g><g id="hair"><g id="Group_3-2" data-name="Group 3"><path id="Group_1-3" data-name="Group 1" class="cls-4" d="M515.9,218.5a2.3,2.3,0,0,1,2.4,2.3c0,11.3-3.4,20-14.5,24.9-5.2,2.3-29.1,1.7-39.4,5.2a2.3,2.3,0,0,0,.6,4.4c13.3.8,34.8-6.4,39.1,7.6s-1.9,43.4-8.6,50.9c-2,2.2-5.9-.5-4.4-3,5.3-8.9,14.9-36.6,5.3-48.1-6-7.2-22.9-.9-30.4-1.6-12.3-1.2-17.8-6.5-29.3-.3a2.3,2.3,0,0,1-3.4-1.8c-1.1-19,5.7-28.8,25.2-32.3S497,219.7,515.9,218.5Z" transform="translate(-301.4 -217)"/></g><path id="Group_2-2" data-name="Group 2" class="cls-4" d="M496.7,285a12.6,12.6,0,0,0-6.6-3.8c-2.9-.4-6.3,1.4-6.6,4.8s1.8,5.6,4.1,7a24.9,24.9,0,0,0,6.2,2.3,23.9,23.9,0,0,1,6.4,3.2c1.2.7,2.4,1.9,2.7-.4C503.4,294,499.3,287.8,496.7,285Z" transform="translate(-301.4 -217)"/><path id="Group_1-4" data-name="Group 1" class="cls-4" d="M507.8,283.9a10.4,10.4,0,0,1,5.1-3.9c2.2-.6,4.7.1,5.6,1.9a5,5,0,0,1-1.1,5,21.4,21.4,0,0,1-4.2,3.7,37.2,37.2,0,0,0-5.9,6c-1.2,1.6-2.5,3.6-3.6,1.6C501.7,294.6,505.5,286.9,507.8,283.9Z" transform="translate(-301.4 -217)"/></g><path id="Group_3-3" data-name="Group 3" class="cls-4" d="M569.5,503.3c65.6-19.2,81-64.6,81-64.6-13.2,6.1-25.6-4.1-25.6-4.1,23.5-13,30.7-36.3,30.7-36.3C641.3,410.4,614,404,614,404c-7.7-61-53-110.8-125.3-106.8-75.4,4.3-114.4,67.8-115,124.3,0,0-14.8,5.3-25.6-1.2,0,0-.9,16.2,16.4,27.6,0,0-6.8,8.1-14.6,6,0,0,6.2,27.9,67.8,46.5" transform="translate(-301.4 -217)"/><path class="cls-5" d="M361,425.2a39.1,39.1,0,0,0,11.3-1.6,106.6,106.6,0,0,0,11.6,49.5,92.8,92.8,0,0,1-13.4-22.9C368.1,444.4,361,425.2,361,425.2Z" transform="translate(-301.4 -217)"/><path class="cls-5" d="M650.5,438.7s-15.4,45.4-81,64.6c30.1-14,53.2-34.6,61.8-59.2-8.6,1.1-16.1-2.5-23-7.7,11.7-3.5,25.3-16.9,29.4-24.9-6.4,4.4-25.9,5.6-33.6,5.2-4.8-48.6-32.4-87.7-72.8-115.1C578.7,315,608,356,614,404c0,0,27.3,6.4,41.6-5.7,0,0-7.2,23.3-30.7,36.3C624.9,434.6,637.3,444.8,650.5,438.7Z" transform="translate(-301.4 -217)"/><path class="cls-4" d="M373.7,421.5c-1,16.7,4.3,38.1,10.2,50" transform="translate(-301.4 -217)"/><path class="cls-6" d="M361.3,369.8A22.6,22.6,0,0,0,346,380.7c-.5.9-1,2.2-.3,3.1a3.6,3.6,0,0,0,2.4.8l6.7.3-2.1,4.7-.2.5-2,4.4" transform="translate(-301.4 -217)"/><g id="Group_5" data-name="Group 5"><ellipse id="Group_4" data-name="Group 4" class="cls-7" cx="407.3" cy="319.3" rx="31.9" ry="28.8" transform="matrix(0.79, -0.61, 0.61, 0.79, -411.66, 97.48)"/><ellipse id="Group_3-4" data-name="Group 3" class="cls-8" cx="407.3" cy="319.3" rx="31.9" ry="28.8" transform="matrix(0.79, -0.61, 0.61, 0.79, -411.66, 97.48)"/><path id="Group_2-3" data-name="Group 2" class="cls-9" d="M402.5,317.1c-5.6,7.3-8.4,14.4-14.4,10.9s-7.1-13.7-.9-21.8,16.1-10.2,21.7-5.4S408.1,309.8,402.5,317.1Z" transform="translate(-301.4 -217)"/><path id="Group_1-5" data-name="Group 1" class="cls-9" d="M415.3,329.8c4.3-3.8,6.9-7.7,9.9-4.8s2.3,9.3-2.5,13.4-10.8,4.1-13.4.5S411.1,333.5,415.3,329.8Z" transform="translate(-301.4 -217)"/></g><path id="Group_3-5" data-name="Group 3" class="cls-8" d="M438,317.7c6.4-5.7,23.9-5,27.5-1" transform="translate(-301.4 -217)"/><path class="cls-10" d="M466.5,407.8c23.5,9.7,17.5,70.4-20.5,70.4-9.5,0,7.2-31.3-.9-43.3" transform="translate(-301.4 -217)"/><path class="cls-11" d="M446,478.2c-4.1,0-3.3-5.7-1.8-13.1l1.6-.9c6.5-3.4,13.8-5.4,19.2-10.3s8.7-13.5,9.2-21.5c.4-5.7-.6-11.2-1.3-16.9a17.1,17.1,0,0,1,0-3.2C488.4,429.5,480,478.2,446,478.2Z" transform="translate(-301.4 -217)"/><path class="cls-12" d="M461.5,436.8s-.7,39-15,39c-7.4,0,2-21.4.9-30.6C447.4,445.2,457.4,440.1,461.5,436.8Z" transform="translate(-301.4 -217)"/><path class="cls-10" d="M463.7,438.3c-26,16.5-60,13.2-60,13.2-4.6-36.9,35.5-53.4,62.8-43.7" transform="translate(-301.4 -217)"/><path class="cls-9" d="M430.3,413.8c-3.2,1.5-9.7,5-9.1,7.2s4.4,2.4,6.7,2.1c7.5-1.2,26.9-11.5,20.4-12.4S433.5,412.4,430.3,413.8Z" transform="translate(-301.4 -217)"/><path class="cls-11" d="M463.4,438.5c-25.9,16.3-59.7,13-59.7,13-1.3-11,1.2-20.1,6.2-27.3,1.3,2.8.6,7.4.4,9.8s-.2,6,1.8,8.1,5.5,2.5,8.5,2.6A150.7,150.7,0,0,0,463.4,438.5Z" transform="translate(-301.4 -217)"/><g id="Group_4-2" data-name="Group 4"><ellipse id="Group_4-3" data-name="Group 4" class="cls-7" cx="496.7" cy="317.7" rx="31.9" ry="28.8" transform="translate(-392.1 151.7) rotate(-37.6)"/><ellipse id="Group_3-6" data-name="Group 3" class="cls-8" cx="496.7" cy="317.7" rx="31.9" ry="28.8" transform="translate(-392.1 151.7) rotate(-37.6)"/><path id="Group_2-4" data-name="Group 2" class="cls-9" d="M492,315.5c-5.6,7.3-8.4,14.4-14.5,10.9s-7.1-13.7-.8-21.8,16.1-10.2,21.7-5.4S497.5,308.2,492,315.5Z" transform="translate(-301.4 -217)"/><path id="Group_1-6" data-name="Group 1" class="cls-9" d="M504.8,328.2c4.3-3.8,6.9-7.7,9.9-4.8s2.2,9.3-2.5,13.4-10.8,4.1-13.4.5S500.5,331.9,504.8,328.2Z" transform="translate(-301.4 -217)"/></g><path class="cls-13" d="M359.6,346.3c16.9,7.7,46.9,30.1,51.3,33.2s4.8,8.9,0,11.8-34.3,1.8-68.6,17.4" transform="translate(-301.4 -217)"/><path class="cls-13" d="M379.3,367.6c4.5-37.7-32.6-38.3-39.9-9.6-7.8-22.2-30.1-15.8-28.9,7s15.9,37.6,30.4,50.6c7.7-4.7,18.7-10,28-25" transform="translate(-301.4 -217)"/><path class="cls-7" d="M366.9,348.3a11.3,11.3,0,0,1,2.3,5.9,39.1,39.1,0,0,1-1.2,18.9,7.2,7.2,0,0,1-1.2,2.5,2.8,2.8,0,0,1-2.5,1.2c-1.3-.1-2.2-1.4-2.5-2.8a13.6,13.6,0,0,1,.4-4,34,34,0,0,0,.1-13.1c-.5-2.5-3.6-8.4-.4-10.3S365.8,347,366.9,348.3Z" transform="translate(-301.4 -217)"/><path class="cls-7" d="M364.3,381.4a3.6,3.6,0,0,1,.2,2.9,6.3,6.3,0,0,1-1.6,2.4,16.5,16.5,0,0,1-4.1,3.4,2,2,0,0,1-2.1.3c-.7-.5-.5-1.6-.2-2.4a31.9,31.9,0,0,1,3-5.8C360.6,380.7,363,379.1,364.3,381.4Z" transform="translate(-301.4 -217)"/><path class="cls-14" d="M341.1,415.5h-.2c-14.5-12.9-29.1-26.7-30.4-50.6-1-18.3,13.1-26,22.8-16.9-7.4-5.6-15.5,6.6-14.6,24.2C319.8,391.7,329.7,404.4,341.1,415.5Z" transform="translate(-301.4 -217)"/><path class="cls-14" d="M379.8,361.2c-5.2-18.9-29-22.3-40.4-3.2C346.4,332.2,381.3,327.7,379.8,361.2Z" transform="translate(-301.4 -217)"/><circle cx="191.8" cy="165.5" r="14.1"/><path class="cls-13" d="M437.9,340.3c18.3,8.2,51,32.1,55.8,35.4s5.2,9.5,0,12.6-37.3,1.9-74.6,18.5" transform="translate(-301.4 -217)"/><path class="cls-13" d="M459.3,363.1c4.9-40.2-35.5-40.8-43.4-10.3-8.5-23.6-32.8-16.8-31.4,7.5s17.3,40,33,53.8c8.4-5,20.4-10.7,30.4-26.6" transform="translate(-301.4 -217)"/><path class="cls-7" d="M445.8,342.5c1.5,1.7,2.1,4,2.6,6.2a42,42,0,0,1-1.4,20.2,9.6,9.6,0,0,1-1.3,2.7,3.3,3.3,0,0,1-2.7,1.2,3.3,3.3,0,0,1-2.7-2.9,15.3,15.3,0,0,1,.4-4.3,34.7,34.7,0,0,0,.1-14c-.5-2.7-3.9-9-.4-10.9C442.2,339.6,444.6,341.1,445.8,342.5Z" transform="translate(-301.4 -217)"/><path class="cls-7" d="M443,377.7a4.1,4.1,0,0,1,.2,3.1,8.3,8.3,0,0,1-1.7,2.6A19.8,19.8,0,0,1,437,387c-.7.4-1.6.8-2.2.3s-.6-1.7-.3-2.6a36,36,0,0,1,3.3-6.1C439,377,441.5,375.3,443,377.7Z" transform="translate(-301.4 -217)"/><path class="cls-14" d="M417.8,414h-.3c-15.7-13.7-31.6-28.3-33-53.8-1.1-19.5,14.3-27.7,24.8-18-8-6-16.9,6.9-15.8,25.7C394.6,388.7,405.4,402.2,417.8,414Z" transform="translate(-301.4 -217)"/><path class="cls-14" d="M459.9,356.2c-5.7-20.1-31.5-23.7-44-3.4C423.6,325.3,461.4,320.6,459.9,356.2Z" transform="translate(-301.4 -217)"/></svg>