<svg id="Layer_1" data-name="Layer 1" xmlns="http://www.w3.org/2000/svg" xmlns:xlink="http://www.w3.org/1999/xlink" viewBox="0 0 485.9 541.7"><defs><style>.cls-1,.cls-10,.cls-6{fill:none;}.cls-2{fill:#212020;}.cls-3{clip-path:url(#clip-path);}.cls-4{fill:#fec216;}.cls-10,.cls-4,.cls-6,.cls-7{stroke:#000;}.cls-10,.cls-12,.cls-13,.cls-4,.cls-6,.cls-7{stroke-linecap:round;stroke-linejoin:round;}.cls-12,.cls-13,.cls-4,.cls-6,.cls-7{stroke-width:3px;}.cls-5{fill:#ff4900;}.cls-14,.cls-5,.cls-9{opacity:0.2;}.cls-11,.cls-8,.cls-9{fill:#fff;}.cls-10{stroke-width:6px;}.cls-11{opacity:0.5;}.cls-12,.cls-13{stroke:#ba3905;}.cls-13{fill:#fe6e16;}.cls-14{fill:#fca01a;}</style><clipPath id="clip-path" transform="translate(-263.6 -176.1)"><circle id="Ellipse_1" data-name="Ellipse 1" class="cls-1" cx="505.7" cy="479.3" r="202.7"/></clipPath></defs><title>ok</title><circle id="Ellipse_1-2" data-name="Ellipse 1" class="cls-2" cx="242" cy="303.2" r="202.7"/><g class="cls-3"><path class="cls-4" d="M407.7,465.3c-19-13.6-58.1,20.4-91.8,69s-45.8,103.9-49.8,130c-11.3,73,79.5,65.2,108.4,1.5C415,576.2,430.9,482,407.7,465.3Z" transform="translate(-263.6 -176.1)"/><path class="cls-5" d="M374.5,665.8c-12.7,28-37.3,45.2-60,49.5a101.9,101.9,0,0,0,28-33.5c35.7-69,63.8-152.4,71-209.3C427.5,500.6,411,585.1,374.5,665.8Z" transform="translate(-263.6 -176.1)"/><g id="body"><path id="Group_3" data-name="Group 3" class="cls-4" d="M391.1,514.7c-19.3,41.3-18.3,126.7,7.9,184,0,0,36.9,15.2,117,16.9,84.4,1.7,120.9-6.4,120.9-6.4,28.9-96.5,21.6-164.6-3.6-215.7-15.4-31.1-46.7-49.5-81-63.6-32.1-13.1-93.4-12.5-131.4,29.4" transform="translate(-263.6 -176.1)"/><path id="Group_2" data-name="Group 2" class="cls-5" d="M635.8,707.4c-3.7.9-12,2.1-29.3,4,20.1-96.7,18.8-131.8-11.1-211.4-17.3-43.7-55.9-70.9-57.3-72.4,33.1,9.4,76.2,31.5,93.1,68C653.2,543.4,668.4,577.9,635.8,707.4Z" transform="translate(-263.6 -176.1)"/></g><g id="Group_1" data-name="Group 1"><path id="Group_1-2" data-name="Group 1" class="cls-2" d="M538.1,512.1c-.4,7.9-1.2,15.7-5.1,22.9s-11.4,14.1-21,15.3l-46.5,5.9c-1.9.3-3.4,1-4.1,3.2a62.1,62.1,0,0,0,7.5,3.1c1.3.4,2.9,0,4.4-.2l18.1-1.6a32.1,32.1,0,0,1,13.4,1.3c4.8,1.7,8.5,4.7,9.3,9.9a16.6,16.6,0,0,1-.4,7c-4,14.9-12.4,25.8-26.1,31.7a49.8,49.8,0,0,0,1.4-6.2c.7-6.2-1.9-8.9-8-8.9s-11.7,2-16.9,4.6a68.4,68.4,0,0,0-6.5,3.7,2.9,2.9,0,0,0-1,1.9c-.7,10.1-1.3,20.2-1.9,30.2l-.6,9.7L429,644.4c.6-1.8,1.1-3.4,1.6-5.1,3.8-11.6,9-22.5,16.7-32,5.9-7.3,13.1-12.9,22.4-15.6a38.1,38.1,0,0,1,15.8-1.4c4.8.6,8.6,3,9.8,8.8,5.9-6.7,11.7-13.2,13.1-22.4.7-4.7-.8-7.2-5.3-9a35.2,35.2,0,0,0-14.3-2.3c-6.7.2-13.1.7-19.4,1a2.9,2.9,0,0,1-1.8-.5c-6.3-4.2-13-5-19.9-3.7a37.3,37.3,0,0,0-13.7,5.7c-.4-8.2-.1-16.1,2.5-23.9a27.3,27.3,0,0,1,5.3-9.4,19,19,0,0,1,10.8-6.4l84-16Z" transform="translate(-263.6 -176.1)"/></g></g><g id="hair"><g id="Group_3-2" data-name="Group 3"><path id="Group_1-3" data-name="Group 1" class="cls-4" d="M387.3,178.6a2.8,2.8,0,0,1,4-.2c9.8,9.3,14.6,19.5,9.7,33.1-2.4,6.5-22.5,26.8-27.9,38.7a2.7,2.7,0,0,0,4.3,3c11.6-10.9,23-35.5,38.8-27.7,17.3,8.5,20.3,44.6,21.3,56.7.3,3.5-5.3,4.7-6.2,1.3-3.4-11.9-3.8-50.4-21.7-51.5-11.1-.7-19.6,19.2-26.4,25.1-11.2,9.8-20.4,10.2-24.4,25.3a2.7,2.7,0,0,1-4.4,1.4c-17.4-14.6-20.2-28.6-7.2-48.5S372.8,196,387.3,178.6Z" transform="translate(-263.6 -176.1)"/></g><path id="Group_2-2" data-name="Group 2" class="cls-4" d="M423.6,259.9a13.7,13.7,0,0,0-8.9-1.8c-3.5.7-6.6,4-5.7,8s4.2,5.6,7.3,6.3,5.6.3,8,.2a27.7,27.7,0,0,1,8.5,1.2c1.6.4,3.4,1.3,2.8-1.5C434.7,267.5,427.6,262,423.6,259.9Z" transform="translate(-263.6 -176.1)"/><path id="Group_1-4" data-name="Group 1" class="cls-4" d="M435.8,254.4c.9-2.5,2.2-5,4.4-6.5s5.3-1.7,7,.1,1.4,4,.7,6.1a38.1,38.1,0,0,1-3.4,5.8,53.5,53.5,0,0,0-4.4,9c-.8,2.3-1.4,5.1-3.5,3.2C432.9,268.8,434.4,258.6,435.8,254.4Z" transform="translate(-263.6 -176.1)"/></g><path class="cls-4" d="M577.2,456.8c28.9-14.1,66.4-3.3,89.7,23.9,20.1,23.5,36.2,51.4,39.3,72.3,6.2,41.8-25.4,79.6-68.7,59.5-22.4-10.4-42.2-41.3-52-69.4" transform="translate(-263.6 -176.1)"/><g id="head"><path id="Group_3-3" data-name="Group 3" class="cls-4" d="M577.4,472c56.6-34.3,66.8-77.4,66.8-77.4-11.9,8-22.4-2.7-22.4-2.7,20.8-16.5,24.2-41.4,24.2-41.4-12,14.3-39.5,10.8-39.5,10.8C594.2,299.5,532.7,251,458,265.7c-76.9,15.1-110.7,91.9-95.1,145.2,0,0-23.9,8.9-36.4,3.2a77,77,0,0,0,30,27.1s-8.4,15.1-17.2,13.9c0,0,12.5,24.8,81.1,36.1" transform="translate(-263.6 -176.1)"/><path id="Group_2-3" data-name="Group 2" class="cls-5" d="M400.3,296.4a10.9,10.9,0,0,0-.8,1.5c-.6,1.1-1.1,2.3-1.8,3.4-16.4,27.8-37.4,67.2-20.3,119.9-8.1-.5-18,4.6-26,5.8H351a1.8,1.8,0,0,0-1.4,1.1,1.9,1.9,0,0,0,.3,1.8c6.4,7.1,10.7,8.9,15.4,17.2-3.4.8-2.3,7.1-5.4,8.5l-2.1,1.1a1.5,1.5,0,0,0-1,1.6,1.7,1.7,0,0,0,1,1.6c15.3,6.7,21.6,13,35.1,22.8-34.2-11.1-43.1-20-49.4-25.9,8.2-1.2,13.3-13.9,13.8-14.1a1.9,1.9,0,0,0,1-1.6,1.8,1.8,0,0,0-1-1.6c-14.7-7.4-23.6-14.7-27.4-22.3,12.6,3.7,32.2-4.7,32.9-4.6a2.1,2.1,0,0,0,1.5-.7,1.6,1.6,0,0,0,.3-1.6C353.5,372.6,368.5,325.5,400.3,296.4Z" transform="translate(-263.6 -176.1)"/><path id="Group_1-5" data-name="Group 1" class="cls-5" d="M640.6,398.6c-4.7,9.7-9.9,28.1-39.2,52,9.3-14.5,11.1-26.4,23.4-38.5a1.7,1.7,0,0,0,.3-2.1,1.8,1.8,0,0,0-1.2-.9,2.7,2.7,0,0,0-.9,0c-8.2,2.3-12.3,1.7-20.9,1.6,7.8-11.5,14-21.5,21-33.4a1.8,1.8,0,0,0-.2-2.1,1.9,1.9,0,0,0-2.1-.5c-8.7,3.9-21.5,4.6-30.8,2.4,5.5-63.5-68.3-104.6-72-107.8,44.2,12.1,77.9,47.8,86.7,92.4a1.9,1.9,0,0,0,2,1.4c.8-.1,24.4,3,37-7.7-1.4,9.6-8,23.2-23,35.1a1.7,1.7,0,0,0-.7,1.7,1.7,1.7,0,0,0,1.2,1.4C621.7,393.8,629.7,403,640.6,398.6Z" transform="translate(-263.6 -176.1)"/></g><path class="cls-4" d="M618.8,589.1c22.4,66.4,91.1,72.1,111.2,51,11.1-11.6,21.7-32.8,16.8-57.1-6.2-30.7-24-47-64-58.7" transform="translate(-263.6 -176.1)"/><path class="cls-4" d="M644.2,541.5c5.8-22,17.2-21.1,16.8-40.2s-6.3-43,12.5-49.5,32.6,15.8,30.3,38.2-6.6,38.9-2.3,56.7" transform="translate(-263.6 -176.1)"/><path class="cls-4" d="M645.9,536.3c-7.4,17-6.8,38.5-1.3,51.1-3.7,33.3,11.7,47.9,24.3,57.2,20.3,14.8,46,6.8,53.1,3.1,19.5-10.2,15.7-32.6,11.6-36.8,5.4-5.3,14-22.2,4.5-38.5,6.6-6.1,12.3-25.5-.5-37s-46.7-13.5-46.7-13.5" transform="translate(-263.6 -176.1)"/><path class="cls-6" d="M738.6,572.3c-9.6,7.9-45.2,10.9-61.6-4s-13-45.8,16.4-46.9" transform="translate(-263.6 -176.1)"/><path class="cls-6" d="M734.5,610.6c-13.7,11.6-40.9,14.9-59.8,1.1s-19.7-43.8-1.9-48" transform="translate(-263.6 -176.1)"/><path class="cls-6" d="M670.3,645.6c-8.4-6.5-21-29.2-3.4-41.8" transform="translate(-263.6 -176.1)"/><path class="cls-4" d="M645.2,587.5a87.6,87.6,0,0,0,3.7,9.2" transform="translate(-263.6 -176.1)"/><g id="face"><g id="Group_3-4" data-name="Group 3"><path id="Group_2-4" data-name="Group 2" class="cls-7" d="M448.8,381.1c3.9,10.7-3.7,15.3-14.4,19.2s-20.4,5.6-24.3-5.1a20.6,20.6,0,1,1,38.7-14.1Z" transform="translate(-263.6 -176.1)"/><circle id="Group_1-6" data-name="Group 1" class="cls-8" cx="156.6" cy="209.9" r="6.1"/></g><g id="Group_2-5" data-name="Group 2"><path id="Group_2-6" data-name="Group 2" class="cls-7" d="M552.2,356.1c3.9,10.7-3.4,13.5-14.1,17.4s-20.7,7.4-24.6-3.3a20.6,20.6,0,0,1,38.7-14.1Z" transform="translate(-263.6 -176.1)"/><circle id="Group_1-7" data-name="Group 1" class="cls-8" cx="260" cy="184.9" r="6.1"/></g></g><g id="Layer_3" data-name="Layer 3"><g id="Group_5" data-name="Group 5"><circle id="Group_4" data-name="Group 4" class="cls-9" cx="164.5" cy="209.4" r="36.7"/><circle id="Group_3-5" data-name="Group 3" class="cls-10" cx="164.5" cy="209.4" r="36.7"/><path id="Group_2-7" data-name="Group 2" class="cls-11" d="M421.7,384c-4.1,9.9-5,18.8-13.3,15.9s-13-14.6-8.4-25.5,15.5-15.6,23.7-11.1S425.8,374.2,421.7,384Z" transform="translate(-263.6 -176.1)"/><path id="Group_1-8" data-name="Group 1" class="cls-11" d="M441.1,396.2c3.8-5.4,5.5-10.6,10.1-7.8s5.8,10.5,1.6,16.4-11.3,7.2-15.6,3.4S437.4,401.5,441.1,396.2Z" transform="translate(-263.6 -176.1)"/></g><g id="Group_4-2" data-name="Group 4"><circle id="Group_4-3" data-name="Group 4" class="cls-9" cx="268.9" cy="185.4" r="36.7"/><circle id="Group_3-6" data-name="Group 3" class="cls-10" cx="268.9" cy="185.4" r="36.7"/><path id="Group_2-8" data-name="Group 2" class="cls-11" d="M526.1,359.9c-4.1,9.9-5,18.8-13.3,16s-13-14.6-8.4-25.6,15.5-15.5,23.7-11S530.2,350.1,526.1,359.9Z" transform="translate(-263.6 -176.1)"/><path id="Group_1-9" data-name="Group 1" class="cls-11" d="M545.6,372.1c3.8-5.3,5.5-10.5,10-7.7s5.9,10.5,1.7,16.3-11.4,7.3-15.7,3.5S541.9,377.4,545.6,372.1Z" transform="translate(-263.6 -176.1)"/></g><path id="Group_3-7" data-name="Group 3" class="cls-10" d="M463.8,377c5.6-8.2,26.5-11.1,32-7.1" transform="translate(-263.6 -176.1)"/></g><g id="Group_1-10" data-name="Group 1"><path id="Group_4-4" data-name="Group 4" class="cls-12" d="M516.2,394.8c-2-14.6-19.6-12.7-32.9-9.8-15.5,3.2-31.7,12.7-26,26.7,7.9,20,31,40,40.6,38.5S518.9,414.3,516.2,394.8Z" transform="translate(-263.6 -176.1)"/><path id="Group_3-8" data-name="Group 3" class="cls-13" d="M516.2,394.8c-.9-14.7-19.6-12.7-32.9-9.8-15.5,3.2-32.3,12.9-26,26.7,3.1,6.9,20.1,11.8,30.2,14.3a10.3,10.3,0,0,0,10-2.7C506.2,415.2,516.6,402.7,516.2,394.8Z" transform="translate(-263.6 -176.1)"/><path id="Group_2-9" data-name="Group 2" class="cls-14" d="M497.5,423.3a9.9,9.9,0,0,1-10,2.7c-9.9-2.8-27.1-7.4-30.2-14.3a13.5,13.5,0,0,1-1.3-6.9c4.1,6.8,23.2,10.6,33.1,8.7s24.3-16.2,25.2-24.7a12.2,12.2,0,0,1,1.9,6C516.6,402.7,506,415.2,497.5,423.3Z" transform="translate(-263.6 -176.1)"/><path id="Group_1-11" data-name="Group 1" class="cls-11" d="M484.5,389.3c-4.7,1-14.6,4.8-14.4,6.7s30.7-5.1,30.6-7.1S489.2,388.2,484.5,389.3Z" transform="translate(-263.6 -176.1)"/></g></svg>