<svg id="Layer_1" data-name="Layer 1" xmlns="http://www.w3.org/2000/svg" xmlns:xlink="http://www.w3.org/1999/xlink" viewBox="0 0 405.5 483.7"><defs><style>.cls-1,.cls-14,.cls-9{fill:none;}.cls-2{fill:#212020;}.cls-3{fill:#fec216;}.cls-14,.cls-15,.cls-16,.cls-3,.cls-6,.cls-9{stroke:#000;}.cls-11,.cls-12,.cls-14,.cls-15,.cls-16,.cls-3,.cls-6,.cls-9{stroke-linecap:round;stroke-linejoin:round;}.cls-11,.cls-12,.cls-14,.cls-15,.cls-16,.cls-3,.cls-6{stroke-width:3px;}.cls-4{fill:#ff4900;}.cls-13,.cls-4,.cls-8{opacity:0.2;}.cls-5{clip-path:url(#clip-path);}.cls-10,.cls-7,.cls-8{fill:#fff;}.cls-9{stroke-width:6px;}.cls-10{opacity:0.5;}.cls-11,.cls-12{stroke:#ba3905;}.cls-12{fill:#fe6e16;}.cls-13{fill:#fca01a;}.cls-15{fill:#9aa5a5;}.cls-16{fill:#d3e0e0;}.cls-17{fill:#333;}.cls-18{opacity:0.1;}</style><clipPath id="clip-path" transform="translate(-302.9 -206.1)"><circle id="Ellipse_1" data-name="Ellipse 1" class="cls-1" cx="505.7" cy="479.3" r="202.7"/></clipPath></defs><title>phone</title><circle id="Ellipse_1-2" data-name="Ellipse 1" class="cls-2" cx="202.7" cy="273.2" r="202.7"/><path class="cls-3" d="M445.5,468.3c-16.7-19.5-60.5-8.9-90.7,21.2-27.1,27-41.7,63.4-34,95.5,9.6,40.3,62.9,46.4,85,18.8C442.3,558.3,465.1,491,445.5,468.3Z" transform="translate(-302.9 -206.1)"/><path class="cls-4" d="M411.4,586.2c-10.3,11.9-28.9,15-45.6,11.4a42,42,0,0,1-3.7-8.6c-5.7-18.9-1.4-47.1,16.9-76.9s42.9-51.7,62.6-50.5a20.7,20.7,0,0,1,5,3.8C466.7,486.1,446.1,546.2,411.4,586.2Z" transform="translate(-302.9 -206.1)"/><g class="cls-5"><path class="cls-3" d="M576.3,474.4c19-17.7,60-8,84.3,20.4,21.9,25.5,25,55.2,18.5,74.5-11.5,34.1-76.3,34.8-91.6,11.5C562.2,542.4,555.2,494.1,576.3,474.4Z" transform="translate(-302.9 -206.1)"/><path class="cls-4" d="M588.9,575.4c7.3,10.1,23.6,13.9,39.5,12.2a34,34,0,0,0,5.1-6.6c9-15.3,10.4-39.5-1.7-66.3s-32-47.4-50.8-46.3a25.1,25.1,0,0,0-5.3,3.4C554.4,489.9,564.2,541.1,588.9,575.4Z" transform="translate(-302.9 -206.1)"/><g id="body"><path id="Group_3" data-name="Group 3" class="cls-3" d="M398.7,488.5c-19.3,28.5-52.4,124.1-41,183.6,0,0,39.8,17.6,141.6,16.1,116.7-1.6,166.4-14.7,166.4-14.7.7-75-18.6-146.9-49.1-189.4-18.4-25.5-55.1-43.3-95.2-45.2-19-.9-59.2-.8-92.5,20.2" transform="translate(-302.9 -206.1)"/></g><path class="cls-4" d="M393.4,497c6.7-10,19.8-26.5,28.1-32.9a113,113,0,0,0-11,16.3c-16.9,30.3-46.3,129.9-39.7,195.9a101.5,101.5,0,0,1-13.1-4.2C346.3,612.6,374.1,525.5,393.4,497Z" transform="translate(-302.9 -206.1)"/><path class="cls-4" d="M665.7,673.5s-4.6,1.2-14.3,2.9c-1.5-80-19.3-155.5-46.3-200.8a80.4,80.4,0,0,0-7.2-10.4,92.9,92.9,0,0,1,18.7,18.9C647.1,526.6,666.4,598.5,665.7,673.5Z" transform="translate(-302.9 -206.1)"/><g id="Group_1" data-name="Group 1"><path id="Group_1-2" data-name="Group 1" class="cls-2" d="M551.8,542.6c-.3,7.1-.9,13.9-4.1,19.9s-9.1,11.3-17,11.5l-40.2,1.3c-1.8.1-3.2.6-3.7,2.6,2.3,1.2,4.6,2.5,7,3.5a12.6,12.6,0,0,0,3.9.2h15.9a28.3,28.3,0,0,1,11.4,2.3c4,1.8,7.1,4.6,7.8,9.2a16.1,16.1,0,0,1-.2,5.8c-3,12.3-9.6,21-20.8,25.5a32.8,32.8,0,0,0,1-5.1c.4-5.2-1.9-7.7-7.1-8a31,31,0,0,0-14.6,3.3,59.3,59.3,0,0,0-5.6,2.9,2.7,2.7,0,0,0-.8,1.6c-.1,8.7-.1,17.3-.2,25.7v8l-22.7-1,1.2-4.4c2.7-9.8,6.8-19.2,13.4-27.2,5-6.1,11.2-10.7,19.4-12.6a32.7,32.7,0,0,1,13.6-.5c4.1.8,7.4,3,8.5,7.9,4.7-5.3,9.3-10.5,10.3-18.2.6-4-.7-6.3-4.5-8.1a31.9,31.9,0,0,0-12.2-3.1c-5.8-.3-11.5-.3-17.1-.5a3.1,3.1,0,0,1-1.7-.7,26.1,26.1,0,0,0-18.5-5,32.2,32.2,0,0,0-12.9,4.2c-1-7.8-1.2-15.4.8-22.7a21.7,21.7,0,0,1,4.6-8.6,14.2,14.2,0,0,1,10.1-4.9c23.4-1.6,48-3.1,73.8-4.7Z" transform="translate(-302.9 -206.1)"/></g><path class="cls-3" d="M674.9,577.9c-29.3,31.7-70.9,21.4-97.1,8.7-31.9-15.5-38.7-40.4-38.4-58.2s16.6-33.1,50.9-28.7c32.3,4.1,53.8,13.1,74.5,25" transform="translate(-302.9 -206.1)"/></g><g id="hair"><g id="Group_3-2" data-name="Group 3"><path id="Group_1-3" data-name="Group 1" class="cls-3" d="M485.9,207.9a2.1,2.1,0,0,1,3.1.9c5.2,9.9,6.3,19.1-1.2,28.4-3.5,4.4-24.6,15-31.9,22.8a2.2,2.2,0,0,0,2.5,3.6c12-5.5,27.4-21.7,37.7-11.5s4,40.3,1.6,50c-.7,2.8-5.4,2.2-5.2-.7.5-10.2,10.4-40.3-3.3-45.9-8.5-3.5-20.4,9.8-27.3,12.6-11.3,4.7-18.6,2.6-25.7,13.4a2.3,2.3,0,0,1-3.8-.1c-9.7-16.1-8.2-27.7,7.1-39.8S469.9,217.7,485.9,207.9Z" transform="translate(-302.9 -206.1)"/></g><path id="Group_2" data-name="Group 2" class="cls-3" d="M492.7,281a10.9,10.9,0,0,0-6.4-3.8c-2.9-.4-6.2,1.4-6.6,4.7s1.8,5.5,4.1,6.9,4.2,1.7,6.1,2.3a27.3,27.3,0,0,1,6.4,3.1c1.1.8,2.3,2,2.6-.4C499.4,289.8,495.3,283.7,492.7,281Z" transform="translate(-302.9 -206.1)"/><path id="Group_1-4" data-name="Group 1" class="cls-3" d="M503.7,279.9a10.8,10.8,0,0,1,5.1-3.9c2.1-.6,4.6.1,5.5,1.9s.1,3.5-1.1,4.9a24.1,24.1,0,0,1-4.1,3.7,32.3,32.3,0,0,0-5.8,5.9c-1.3,1.5-2.5,3.6-3.6,1.5S501.5,282.8,503.7,279.9Z" transform="translate(-302.9 -206.1)"/></g><g id="head"><path id="Group_3-3" data-name="Group 3" class="cls-3" d="M575.4,494.2c56.2-20.6,72.7-57.1,72.7-57.1-11.9,5.1-19.4-6.3-19.4-6.3,21.3-11.1,28.7-32.5,28.7-32.5-13.2,10.5-37,2.7-37,2.7-.2-57.1-46.4-110.8-115.3-110.7-70.9.1-114.3,62.5-109.7,112.5,0,0-22.7,3.8-32.9-3.5a69.5,69.5,0,0,0,22,29.2s-10.1,12.1-17.7,9.5c0,0,6.8,24.2,65.8,46.1" transform="translate(-302.9 -206.1)"/><path id="Group_2-2" data-name="Group 2" class="cls-4" d="M448.5,307.6l-1,1.2c-.7.8-1.3,1.8-2.1,2.7-19.4,21.9-45,53.2-38.9,102.9-7.1-1.8-16.8,1-24.1.7h-.3a1.8,1.8,0,0,0-1.5.8,1.5,1.5,0,0,0,0,1.6c4.5,7.4,7.9,9.7,10.6,17.9-3,.2-3.2,5.9-6.2,6.7l-2.1.5a1.6,1.6,0,0,0-1.1,1.3,1.6,1.6,0,0,0,.6,1.7c12.5,8.5,16.9,15.2,27.2,26.2-28.4-15.7-34.8-25.1-39.4-31.6,7.5.4,14.3-10,14.7-10.1a1.5,1.5,0,0,0,1.2-1.2,1.6,1.6,0,0,0-.6-1.6c-11.8-9.1-18.4-17.1-20.4-24.5,10.5,5.4,29.3,1.4,30,1.5a1.4,1.4,0,0,0,1.4-.3,2,2,0,0,0,.6-1.4C393.8,367.1,415.2,327.9,448.5,307.6Z" transform="translate(-302.9 -206.1)"/><path id="Group_1-5" data-name="Group 1" class="cls-4" d="M644.2,440c-5.8,7.8-13.6,23.2-43.8,39.4,10.8-11.2,14.5-21.5,27.4-30.1a1.8,1.8,0,0,0,.7-1.9,2.2,2.2,0,0,0-.9-1h-.8c-7.7.6-11.2-.6-18.8-2.2,8.8-8.9,16.1-16.6,24.4-26.1a1.7,1.7,0,0,0,.1-1.9,1.4,1.4,0,0,0-1.7-.7c-8.4,1.9-19.9.3-27.8-3.3,15.9-55.4-42.5-104.7-45.2-108.2,37.1,18.4,60.8,55.9,60.9,97.1a1.7,1.7,0,0,0,1.5,1.6c.8.1,21.2,6.9,34.3-.4-3,8.2-11.2,19.2-26.6,27.2a1.9,1.9,0,0,0-.9,1.4,1.5,1.5,0,0,0,.9,1.4C628.3,432.5,633.8,442,644.2,440Z" transform="translate(-302.9 -206.1)"/><path class="cls-3" d="M395.4,402.8a156.9,156.9,0,0,0,2.7,18.1" transform="translate(-302.9 -206.1)"/><path class="cls-3" d="M620.4,401c-.2,7.5-2.3,19.9-2.3,19.9" transform="translate(-302.9 -206.1)"/></g><g id="face"><g id="Group_2-3" data-name="Group 2"><path id="Group_2-4" data-name="Group 2" class="cls-6" d="M567,406.5c1.2,9.3-5.9,17-15.2,18.3s-17.3-4.5-18.5-13.8a17,17,0,0,1,33.7-4.5Z" transform="translate(-302.9 -206.1)"/><circle id="Group_1-6" data-name="Group 1" class="cls-7" cx="242" cy="197.3" r="5.8"/></g></g><g id="face-2" data-name="face"><g id="Group_2-5" data-name="Group 2"><path id="Group_2-6" data-name="Group 2" class="cls-6" d="M484.6,405c1.3,9.3-5.9,17-15.2,18.3s-17.2-4.5-18.4-13.8a17,17,0,1,1,33.6-4.5Z" transform="translate(-302.9 -206.1)"/><circle id="Group_1-7" data-name="Group 1" class="cls-7" cx="159.6" cy="195.8" r="5.8"/></g></g><g id="Layer_3" data-name="Layer 3"><g id="Group_4" data-name="Group 4"><circle id="Group_4-2" data-name="Group 4" class="cls-8" cx="250" cy="202.5" r="30.2"/><circle id="Group_3-4" data-name="Group 3" class="cls-9" cx="250" cy="202.5" r="30.2"/><path id="Group_2-7" data-name="Group 2" class="cls-10" d="M548.1,406.1c-5.2,7-7.8,14-13.8,10s-7.5-14.3-1.6-22.1,15.5-9.3,21.2-4S553.4,399.1,548.1,406.1Z" transform="translate(-302.9 -206.1)"/><path id="Group_1-8" data-name="Group 1" class="cls-10" d="M561.2,419.7c4.1-3.5,6.5-7.3,9.6-4.1s2.6,9.5-2,13.4-10.5,3.5-13.2-.4S557.1,423.2,561.2,419.7Z" transform="translate(-302.9 -206.1)"/></g><g id="Group_4-3" data-name="Group 4"><circle id="Group_4-4" data-name="Group 4" class="cls-8" cx="161.9" cy="200.3" r="30.2"/><circle id="Group_3-5" data-name="Group 3" class="cls-9" cx="161.9" cy="200.3" r="30.2"/><path id="Group_2-8" data-name="Group 2" class="cls-10" d="M460.1,403.8c-5.3,7.1-7.8,14-13.9,10.1s-7.4-14.4-1.5-22.1,15.5-9.4,21.1-4.1S465.3,396.8,460.1,403.8Z" transform="translate(-302.9 -206.1)"/><path id="Group_1-9" data-name="Group 1" class="cls-10" d="M473.2,417.5c4-3.5,6.5-7.3,9.6-4.2s2.5,9.6-2.1,13.4-10.5,3.5-13.1-.4S469.1,421,473.2,417.5Z" transform="translate(-302.9 -206.1)"/></g><path id="Group_3-6" data-name="Group 3" class="cls-9" d="M494.8,407.1c6.2-5.3,23.5-3.5,27.1.8" transform="translate(-302.9 -206.1)"/></g><g id="Group_1-10" data-name="Group 1"><path id="Group_4-5" data-name="Group 4" class="cls-11" d="M532.8,435c1.5-14.4-12.9-17.1-24.2-17.6-13-.9-27.9,4.1-26.3,18.9,9.2,18.6,16.5,26.7,24.5,27.8S524.6,453.9,532.8,435Z" transform="translate(-302.9 -206.1)"/><path id="Group_3-7" data-name="Group 3" class="cls-12" d="M532.8,435c2.4-14.2-12.9-17.1-24.2-17.6-13-.9-28.4,4.2-26.3,18.9,1,7.4,13.6,16.4,21.1,21.3a7.4,7.4,0,0,0,8.5,0C520.6,452,531.5,442.7,532.8,435Z" transform="translate(-302.9 -206.1)"/><path id="Group_2-9" data-name="Group 2" class="cls-13" d="M511.9,457.6a7.2,7.2,0,0,1-8.5,0c-7.3-5.2-20.1-13.9-21.1-21.3a15.1,15.1,0,0,1,.4-6.8c1.9,7.4,16.3,15.9,24.6,16.5s22.7-9.3,25.3-17.2a14.1,14.1,0,0,1,.2,6.2C531.5,442.7,520.4,452,511.9,457.6Z" transform="translate(-302.9 -206.1)"/><path id="Group_1-11" data-name="Group 1" class="cls-10" d="M508.7,421.8c-3.9-.2-12.6.9-12.9,2.7s25.6,3,25.9,1S512.7,422,508.7,421.8Z" transform="translate(-302.9 -206.1)"/></g><path class="cls-3" d="M319,573.8c3.6,47.2,38.4,62.4,69.3,70.1,37.5,9.3,69.2,1.3,80.9-14.5s4.8-36-28.2-54.8-64.6-21.1-92.6-14.3" transform="translate(-302.9 -206.1)"/><path class="cls-3" d="M610.6,554.6c16.4-24.3,12.2-57.9,3.4-71.9s-23.6-16.3-28-14.3c0,0-8.4-13.5-22.3-5.3,0,0,4.4-34.3-25.6-32.9s-21.1,37.3-18.7,44.5,7.1,22.9,7.1,22.9-8.6,10.3-3.4,26.1c6.7,20.2,17.1,37.7,38.5,45" transform="translate(-302.9 -206.1)"/><path class="cls-3" d="M526.5,497.6c5.9-9.3,41.4-6.2,44.2,9.3s-21.8,24.2-32.3,18.7" transform="translate(-302.9 -206.1)"/><path class="cls-14" d="M563.7,463.1c-1.5,8.3-8.9,14.5-21,14.5s-17.6-11.6-18.2-18.4" transform="translate(-302.9 -206.1)"/><path class="cls-14" d="M586,468.4c5.4,9.4,6.5,28.2,3.9,35.4s-10.8,15.5-21.4,13.2" transform="translate(-302.9 -206.1)"/><path class="cls-3" d="M552.9,475.8c-1.8,5.6-.9,13.1,1.7,18.2" transform="translate(-302.9 -206.1)"/><path class="cls-14" d="M615,484.5c3.2,10.1-.8,22.9-8.9,29.2s-21.4,6.4-26.2,1.7" transform="translate(-302.9 -206.1)"/><path class="cls-3" d="M429.5,589.5c2.1-9.5,11.5-21.7,16.9-29.8s-2.8-32.2,6.2-36.6,18.1,2.3,22.4,10.6,10,24,2.5,40.2,4.9,60.6-36.9,69" transform="translate(-302.9 -206.1)"/><path class="cls-15" d="M585.4,499.4h-.1l-34.3-.6-90.7-1.7V495l.2-8a8.5,8.5,0,0,1,8.9-8.3l76.9,3.1,29.9,1.2a8.5,8.5,0,0,1,8.2,8.3Z" transform="translate(-302.9 -206.1)"/><path class="cls-16" d="M585.3,500.8,571.5,616.9a7.9,7.9,0,0,1-8,7.1H538.3l-57.9-.3a8,8,0,0,1-8-7.2L460.3,497.1a7.4,7.4,0,0,1,.1-2.1,7.9,7.9,0,0,1,8.2-6.8l78,2.5,30.9,1.1a8,8,0,0,1,7.8,7.6Z" transform="translate(-302.9 -206.1)"/><circle class="cls-17" cx="218.9" cy="348.6" r="15.1"/><path class="cls-15" d="M493.2,514.6a9.8,9.8,0,0,1-17.2-.9c-2-5.1,1.5-11.3,9.2-10.9S495.8,509.8,493.2,514.6Z" transform="translate(-302.9 -206.1)"/><path class="cls-6" d="M493.2,514.6a9.8,9.8,0,0,1-17.2-.9,7.2,7.2,0,0,1-.5-4.1,8,8,0,0,0,.5,2.6,9.8,9.8,0,0,0,8.4,5.6c3.4.1,7.2-1.5,8.9-4.7a7.5,7.5,0,0,0,.8-2.4A6.8,6.8,0,0,1,493.2,514.6Z" transform="translate(-302.9 -206.1)"/><path class="cls-15" d="M493.4,538.5a9.7,9.7,0,0,1-8.9,4.6c-3.5-.2-7.1-2.3-8.4-5.6-2-5,1.6-11.3,9.3-10.9S495.9,533.7,493.4,538.5Z" transform="translate(-302.9 -206.1)"/><path class="cls-6" d="M493.4,538.5a9.7,9.7,0,0,1-8.9,4.6c-3.5-.2-7.1-2.3-8.4-5.6a7.9,7.9,0,0,1-.4-4,7.4,7.4,0,0,0,.5,2.5c1.3,3.3,4.9,5.4,8.3,5.6a8.7,8.7,0,0,0,9.8-7.1A9.7,9.7,0,0,1,493.4,538.5Z" transform="translate(-302.9 -206.1)"/><path class="cls-18" d="M585.3,499.4v1.4L571.5,616.9a7.9,7.9,0,0,1-8,7.1H538.3a122,122,0,0,0,23.3-62.7c.2-3.5.4-6.9.4-10.4,0-17.5-3.4-36-11-52a71.2,71.2,0,0,0-3.6-6.7,11.5,11.5,0,0,1-.8-1.4c-.6-.9-.7-1.3-.5-3.3s.1-3.6.2-5.4c0-.1,0-.1.1-.2l29.9,1.2a8.5,8.5,0,0,1,8.2,8.3l.9,8.1Z" transform="translate(-302.9 -206.1)"/><path class="cls-3" d="M440.6,642.9c21.9,8.6,90.9-11.3,102.3-13s22.9-13,13.8-22.6c0,0,9.5-6.1,5.6-16.1a26.6,26.6,0,0,0-21.5-16.3c.8-4.9-1.2-17.8-21.6-20.8s-41.4.4-58.1,9.5" transform="translate(-302.9 -206.1)"/><path class="cls-3" d="M556.7,607.3c-6.8,5.8-15.6,2.6-28.6,3.2a129.4,129.4,0,0,0-28.5,4.8" transform="translate(-302.9 -206.1)"/><path class="cls-3" d="M540.8,574.9c-.5,8.2-11,11.4-22.7,9.9s-31.8,6.5-31.8,6.5" transform="translate(-302.9 -206.1)"/></svg>