<svg id="Layer_1" data-name="Layer 1" xmlns="http://www.w3.org/2000/svg" xmlns:xlink="http://www.w3.org/1999/xlink" viewBox="0 0 584.3 498.1"><defs><style>.cls-1,.cls-9{fill:none;}.cls-2{fill:#212020;}.cls-3{fill:#fec216;}.cls-3,.cls-6,.cls-9{stroke:#000;}.cls-11,.cls-12,.cls-3,.cls-6,.cls-9{stroke-linecap:round;stroke-linejoin:round;}.cls-11,.cls-12,.cls-3,.cls-6{stroke-width:3px;}.cls-4{fill:#ff4900;}.cls-13,.cls-4,.cls-8{opacity:0.2;}.cls-5{clip-path:url(#clip-path);}.cls-10,.cls-7,.cls-8{fill:#fff;}.cls-9{stroke-width:6px;}.cls-10{opacity:0.5;}.cls-11,.cls-12{stroke:#ba3905;}.cls-12{fill:#fe6e16;}.cls-13{fill:#fca01a;}</style><clipPath id="clip-path" transform="translate(-135.1 -209.3)"><circle id="Ellipse_1" data-name="Ellipse 1" class="cls-1" cx="505.7" cy="479.3" r="202.7"/></clipPath></defs><title>read</title><circle id="Ellipse_1-2" data-name="Ellipse 1" class="cls-2" cx="370.6" cy="270" r="202.7"/><path class="cls-3" d="M394.6,593.3c-8.8,8.5-21.9,13.4-35.8,14.7-26,2.4-54.5-8-61.8-31.3-8.8-28.4,8-60.6,39-84.5,25.7-19.7,59.8-29.9,83.6-26.9,8.4,1,15.5,3.7,20.5,8.1C462.5,493.5,436.4,553.1,394.6,593.3Z" transform="translate(-135.1 -209.3)"/><path class="cls-4" d="M394.6,593.3c-8.8,8.5-21.9,13.4-35.8,14.7q-3.9-.4-7.8-1.2a38.1,38.1,0,0,1-4.3-9.1c-6.6-20.2-1.7-50.3,19.4-82.2,15.1-22.8,35-42.3,53.5-50.2,8.4,1,15.5,3.7,20.5,8.1C462.5,493.5,436.4,553.1,394.6,593.3Z" transform="translate(-135.1 -209.3)"/><path class="cls-3" d="M334.6,606.5c-79.4-17.8-138.3-76.6-98-127.2,28.8-36.2,90.4-8.8,115.6,43.8" transform="translate(-135.1 -209.3)"/><path class="cls-4" d="M316.9,601.8c-55.8-17.5-97.3-55.2-93-93.5C241.2,540.3,280.7,573.4,316.9,601.8Z" transform="translate(-135.1 -209.3)"/><path class="cls-3" d="M232.7,516.6c-7.1-13.8,9.3-31.3,11.2-45.8,3.5-24.7,5.2-51.3,13.9-70.4,7-15.2,25.4-18.4,31.3-6.6s-8.8,18-5.7,36.4,8.1,30.9,4,44.8" transform="translate(-135.1 -209.3)"/><path class="cls-3" d="M270.6,442.3c-10.9-10.6-40-34.7-50.6-47.1s-41.5-30.3-57.3-14.8c0,0-18.9-6.8-25.3,8.8-4.6,11.2,12,20.8,12,20.8s5.4,17.3,11.1,28,13.4,35.3,22.7,45.3c13.1,13.9,32.2,33.8,49.5,33.3" transform="translate(-135.1 -209.3)"/><path class="cls-3" d="M149.4,410c-.6-7.8,21.2-16.6,31.3,1.8a151.8,151.8,0,0,1,14.1,35.3" transform="translate(-135.1 -209.3)"/><path class="cls-3" d="M162.7,380.4c19.5,6.7,44.2,30.1,54.7,48.7" transform="translate(-135.1 -209.3)"/><path class="cls-3" d="M237.9,423.6s-33.2,3.1-48.7,35" transform="translate(-135.1 -209.3)"/><path class="cls-3" d="M210.2,457.9c14.6-3.6,31.5-1.4,39.4,13.6" transform="translate(-135.1 -209.3)"/><g class="cls-5"><path class="cls-3" d="M572.5,478.4c19.2-27,69.5-12.3,104.1,29.4,31.1,37.4,47.8,87.8,39,132.2-11.1,55.9-72.1,64.3-97.6,26C576.2,603.1,550.1,509.8,572.5,478.4Z" transform="translate(-135.1 -209.3)"/><path class="cls-4" d="M611.7,641.7c11.8,16.5,33.1,20.8,52.2,15.7a60.4,60.4,0,0,0,4.3-11.8c6.5-26.1,1.6-65.2-19.4-106.5-20.3-39.7-49.2-71.6-71.8-70a25.9,25.9,0,0,0-5.7,5.3C548.2,503,571.9,586.2,611.7,641.7Z" transform="translate(-135.1 -209.3)"/><g id="body"><path id="Group_3" data-name="Group 3" class="cls-3" d="M393.8,495.2c-19.4,28.8-53.2,134.1-41.6,194.3,0,0,40.2,17.8,143.3,16.3,118.2-1.6,168.4-14.9,168.4-14.9.8-75.9-18.6-157.1-49.5-200.2-18.5-25.8-55.7-43.8-96.3-45.7-19.2-.9-59.9-.9-93.6,20.5" transform="translate(-135.1 -209.3)"/></g><path class="cls-4" d="M388.5,503.8c6.8-10.2,20-26.9,28.5-33.3A110.6,110.6,0,0,0,405.8,487c-17.1,30.7-47,140-40.3,206.8a115.3,115.3,0,0,1-13.3-4.3C340.6,629.3,369,532.6,388.5,503.8Z" transform="translate(-135.1 -209.3)"/><path class="cls-4" d="M663.9,690.9s-4.6,1.2-14.5,3c-1.4-81-19.3-165.9-46.5-211.7a95.9,95.9,0,0,0-7.4-10.6,89.9,89.9,0,0,1,18.9,19.1C645.3,533.8,664.7,615,663.9,690.9Z" transform="translate(-135.1 -209.3)"/><g id="Group_1" data-name="Group 1"><path id="Group_1-2" data-name="Group 1" class="cls-2" d="M548.8,549.9c-.2,7.2-.9,14.1-4.1,20.2s-9.2,11.4-17.2,11.7L486.8,583c-1.8.1-3.2.7-3.8,2.7,2.4,1.2,4.7,2.5,7.1,3.5a13.5,13.5,0,0,0,4,.2c5.3,0,10.7-.1,16.1,0a27.8,27.8,0,0,1,11.6,2.2c4,1.8,7.1,4.7,7.9,9.3a14.5,14.5,0,0,1-.3,5.9c-3.1,12.5-9.7,21.3-21,25.8a50.9,50.9,0,0,0,1-5.1c.4-5.3-1.9-7.8-7.2-8.1a30.3,30.3,0,0,0-14.7,3.3,51.2,51.2,0,0,0-5.7,3,1.9,1.9,0,0,0-.8,1.6c-.1,8.8-.2,17.5-.3,25.9v8.2l-22.9-1c.4-1.6.7-3,1.1-4.5,2.9-9.9,7-19.4,13.6-27.6,5.1-6.1,11.4-10.8,19.7-12.7a33.2,33.2,0,0,1,13.7-.4c4.2.7,7.5,2.9,8.6,7.9,4.8-5.4,9.5-10.6,10.5-18.4.5-4.1-.8-6.4-4.6-8.2a30.7,30.7,0,0,0-12.4-3.1l-17.2-.6a3.5,3.5,0,0,1-1.7-.6,26,26,0,0,0-18.8-5.1,32.2,32.2,0,0,0-13.1,4.3c-.9-7.9-1.2-15.6.9-23a21.9,21.9,0,0,1,4.6-8.8,14.4,14.4,0,0,1,10.2-4.9l74.7-4.8Z" transform="translate(-135.1 -209.3)"/></g><path class="cls-4" d="M319,602.4l-.4.7-1.7-1.3Z" transform="translate(-135.1 -209.3)"/></g><g id="hair"><g id="Group_3-2" data-name="Group 3"><path id="Group_1-3" data-name="Group 1" class="cls-3" d="M482.2,211.2a2.2,2.2,0,0,1,3.1.8c5.3,10.1,6.3,19.4-1.2,28.8-3.5,4.5-24.9,15.1-32.4,23.1a2.3,2.3,0,0,0,2.6,3.6c12.1-5.5,27.8-21.9,38.1-11.6s4.1,40.8,1.7,50.6c-.7,2.8-5.4,2.2-5.3-.7.6-10.3,10.5-40.8-3.3-46.5-8.6-3.5-20.6,9.9-27.6,12.8-11.5,4.8-18.8,2.6-26.1,13.5a2.2,2.2,0,0,1-3.8-.1c-9.8-16.2-8.4-28,7.2-40.2S466,221.1,482.2,211.2Z" transform="translate(-135.1 -209.3)"/></g><path id="Group_2" data-name="Group 2" class="cls-3" d="M489.1,285.1a11.4,11.4,0,0,0-6.6-3.8c-2.9-.4-6.3,1.4-6.6,4.8s1.8,5.6,4.1,7a29.6,29.6,0,0,0,6.2,2.3,23.8,23.8,0,0,1,6.4,3.1c1.2.8,2.4,2,2.7-.4C495.8,294.1,491.7,287.8,489.1,285.1Z" transform="translate(-135.1 -209.3)"/><path id="Group_1-4" data-name="Group 1" class="cls-3" d="M500.2,284a10.2,10.2,0,0,1,5.2-3.9c2.1-.6,4.6,0,5.5,1.9a5,5,0,0,1-1.1,5,25.3,25.3,0,0,1-4.2,3.7,37.2,37.2,0,0,0-5.9,6c-1.2,1.5-2.5,3.6-3.6,1.5S497.9,287,500.2,284Z" transform="translate(-135.1 -209.3)"/></g><g id="head"><path id="Group_3-3" data-name="Group 3" class="cls-3" d="M572.7,501c56.9-20.9,73.6-57.8,73.6-57.8-12,5.1-19.6-6.4-19.6-6.4,21.6-11.2,29-33,29-33-13.3,10.7-37.4,2.8-37.4,2.8-.2-57.8-47-112.2-116.7-112.1-71.8.2-115.7,63.3-111,113.9,0,0-23,3.8-33.3-3.5a70.1,70.1,0,0,0,22.2,29.6s-10.2,12.2-17.9,9.6c0,0,6.9,24.4,66.6,46.6" transform="translate(-135.1 -209.3)"/><path id="Group_2-2" data-name="Group 2" class="cls-4" d="M444.3,312a14.7,14.7,0,0,0-1,1.3l-2.2,2.7c-19.6,22.1-45.4,53.9-39.3,104.2-7.2-1.9-17,1-24.4.7h-.3a1.4,1.4,0,0,0-1.5.8,1.5,1.5,0,0,0,0,1.6c4.5,7.5,8,9.9,10.7,18.1-3.1.2-3.3,6-6.3,6.8l-2.1.6a1.5,1.5,0,0,0-1.2,1.3,1.7,1.7,0,0,0,.7,1.6c12.6,8.7,17.1,15.4,27.5,26.6-28.7-15.9-35.2-25.5-39.9-32,7.6.4,14.5-10.1,14.9-10.2a1.8,1.8,0,0,0,1.2-1.3,1.7,1.7,0,0,0-.6-1.6c-11.9-9.2-18.6-17.3-20.7-24.8,10.7,5.5,29.7,1.4,30.4,1.6a1.7,1.7,0,0,0,1.5-.4,1.4,1.4,0,0,0,.5-1.4C388.9,372.3,410.6,332.6,444.3,312Z" transform="translate(-135.1 -209.3)"/><path id="Group_1-5" data-name="Group 1" class="cls-4" d="M642.4,446.1c-5.9,7.9-13.8,23.5-44.3,39.9,10.9-11.4,14.6-21.8,27.7-30.5a1.8,1.8,0,0,0,.7-1.9,1.8,1.8,0,0,0-.9-1h-.8c-7.8.6-11.4-.7-19.1-2.3,9-8.9,16.4-16.8,24.7-26.4a1.7,1.7,0,0,0,.2-1.9,1.8,1.8,0,0,0-1.8-.8c-8.5,2-20.2.4-28.1-3.2,16.1-56.1-43-106-45.8-109.6,37.6,18.7,61.6,56.6,61.7,98.3a1.6,1.6,0,0,0,1.5,1.6c.8.1,21.4,7,34.7-.4-3,8.3-11.3,19.4-26.9,27.5a1.9,1.9,0,0,0-.9,1.5,1.5,1.5,0,0,0,.9,1.4C626.3,438.5,631.9,448.1,642.4,446.1Z" transform="translate(-135.1 -209.3)"/><path class="cls-3" d="M390.6,408.4a174.1,174.1,0,0,0,2.6,18.4" transform="translate(-135.1 -209.3)"/><path class="cls-3" d="M618.3,406.6c-.2,7.6-2.3,20.2-2.3,20.2" transform="translate(-135.1 -209.3)"/></g><g id="face"><g id="Group_2-3" data-name="Group 2"><path id="Group_2-4" data-name="Group 2" class="cls-6" d="M481,390.4c-.2,9.5-8.5,6.2-18,6s-16.6,2.9-16.4-6.6a17.2,17.2,0,0,1,34.4.6Z" transform="translate(-135.1 -209.3)"/><circle id="Group_1-6" data-name="Group 1" class="cls-7" cx="321.6" cy="173" r="4.7"/></g></g><g id="face-2" data-name="face"><g id="Group_2-5" data-name="Group 2"><path id="Group_2-6" data-name="Group 2" class="cls-6" d="M564.3,390.4c-.1,9.5-8.4,6.2-17.9,6s-16.6,2.9-16.4-6.6a17.2,17.2,0,0,1,34.3.6Z" transform="translate(-135.1 -209.3)"/><circle id="Group_1-7" data-name="Group 1" class="cls-7" cx="404.9" cy="173" r="4.7"/></g></g><g id="Layer_3" data-name="Layer 3"><g id="Group_4" data-name="Group 4"><circle id="Group_4-2" data-name="Group 4" class="cls-8" cx="414.9" cy="187.5" r="30.6"/><circle id="Group_3-4" data-name="Group 3" class="cls-9" cx="414.9" cy="187.5" r="30.6"/><path id="Group_2-7" data-name="Group 2" class="cls-10" d="M545.1,394.4c-5.2,7.2-7.6,14.3-13.8,10.5s-7.9-14.4-2.1-22.4,15.5-9.8,21.4-4.5S550.2,387.1,545.1,394.4Z" transform="translate(-135.1 -209.3)"/><path id="Group_1-8" data-name="Group 1" class="cls-10" d="M558.6,407.9c4.1-3.6,6.5-7.5,9.7-4.4s2.8,9.6-1.8,13.6-10.5,3.8-13.3-.1S554.6,411.5,558.6,407.9Z" transform="translate(-135.1 -209.3)"/></g><g id="Group_4-3" data-name="Group 4"><circle id="Group_4-4" data-name="Group 4" class="cls-8" cx="325.8" cy="187.2" r="30.6"/><circle id="Group_3-5" data-name="Group 3" class="cls-9" cx="325.8" cy="187.2" r="30.6"/><path id="Group_2-8" data-name="Group 2" class="cls-10" d="M455.9,394.1c-5.1,7.2-7.5,14.3-13.7,10.5s-7.9-14.4-2.1-22.4,15.5-9.8,21.3-4.6S461.1,386.8,455.9,394.1Z" transform="translate(-135.1 -209.3)"/><path id="Group_1-9" data-name="Group 1" class="cls-10" d="M469.5,407.6c4-3.7,6.4-7.6,9.6-4.4s2.8,9.6-1.7,13.6-10.6,3.7-13.4-.1S465.5,411.2,469.5,407.6Z" transform="translate(-135.1 -209.3)"/></g><path id="Group_3-6" data-name="Group 3" class="cls-9" d="M491.2,396.6c6.1-5.5,23.6-4.1,27.4.2" transform="translate(-135.1 -209.3)"/></g><g id="Group_1-10" data-name="Group 1"><path id="Group_4-5" data-name="Group 4" class="cls-11" d="M529.6,424.6c1.5-14.6-13.1-17.3-24.4-17.9-13.2-.9-28.3,4.2-26.7,19.2,9.3,18.8,16.7,27,24.8,28S521.3,443.6,529.6,424.6Z" transform="translate(-135.1 -209.3)"/><path id="Group_3-7" data-name="Group 3" class="cls-12" d="M529.6,424.6c2.5-14.4-13.1-17.3-24.4-17.9-13.2-.9-28.8,4.3-26.7,19.2,1.1,7.4,13.8,16.5,21.3,21.5a7.5,7.5,0,0,0,8.7,0C517.2,441.8,528.3,432.3,529.6,424.6Z" transform="translate(-135.1 -209.3)"/><path id="Group_2-9" data-name="Group 2" class="cls-13" d="M508.5,447.4c-2.9,1.8-5.9,2-8.7,0-7.4-5.3-20.2-14.1-21.3-21.5a16.1,16.1,0,0,1,.4-7c1.9,7.6,16.5,16.2,24.9,16.8s23-9.4,25.6-17.5a15.1,15.1,0,0,1,.2,6.4C528.3,432.3,517.1,441.7,508.5,447.4Z" transform="translate(-135.1 -209.3)"/><path id="Group_1-11" data-name="Group 1" class="cls-10" d="M505.3,411.1c-4.1-.2-12.9.9-13.1,2.8s25.9,3,26.2,1S509.3,411.3,505.3,411.1Z" transform="translate(-135.1 -209.3)"/></g></svg>