<svg id="Layer_1" data-name="Layer 1" xmlns="http://www.w3.org/2000/svg" xmlns:xlink="http://www.w3.org/1999/xlink" viewBox="0 0 421.3 426.3"><defs><style>.cls-1,.cls-18{fill:none;}.cls-2{fill:#212020;}.cls-3{clip-path:url(#clip-path);}.cls-4{fill:#f0e8d5;}.cls-5{fill:#e8d3bb;}.cls-6{fill:#fc651c;}.cls-7{fill:#fdb93a;}.cls-8{fill:#fdef84;}.cls-13,.cls-9{fill:#f2f2f2;}.cls-12,.cls-13,.cls-14,.cls-15,.cls-16,.cls-17,.cls-9{stroke:#000;}.cls-10,.cls-12,.cls-9{stroke-miterlimit:10;}.cls-10,.cls-15,.cls-19{fill:#fec216;}.cls-10{stroke:#f15a24;}.cls-11{opacity:0.3;}.cls-12,.cls-20{fill:#1d2933;}.cls-13,.cls-14,.cls-15,.cls-16,.cls-17,.cls-18{stroke-linecap:round;stroke-linejoin:round;}.cls-13,.cls-14,.cls-15,.cls-16,.cls-17{stroke-width:3px;}.cls-14,.cls-17{fill:#022d44;}.cls-16{fill:#e6e6e6;}.cls-17{opacity:0.1;}.cls-18{stroke:#fff;stroke-width:12px;}</style><clipPath id="clip-path" transform="translate(-302.9 -276.6)"><circle id="Ellipse_1" data-name="Ellipse 1" class="cls-1" cx="505.7" cy="479.3" r="202.7"/></clipPath></defs><title>rocket</title><circle id="Ellipse_1-2" data-name="Ellipse 1" class="cls-2" cx="202.7" cy="202.7" r="202.7"/><g class="cls-3"><path class="cls-4" d="M421.8,663.4c-31.9-22.1-53.6-52.1-65.5-88.8-29.6-91.9,15.1-187.7,105.4-222.5,62-23.9,120.5-14.3,173.8,25.8l1.2,1.3c.2,3.5,3.1,5.2,5.1,7.4,32.2,36.5,48.1,79.3,45.1,127.7-4.2,69.2-38.5,120-99.9,152.3-3.3,1.7-6.7,4.2-11.2,4,4.4-9.5,2.8-15.7-4.3-19-5.1-2.3-11.8.7-14.2,6.4s0,11,11.9,16.2c-17.2,5.4-34.3,9.4-52.3,10.1-31.2,1.3-60.4-5.2-88.3-18.8C426.5,664.5,424.5,662.6,421.8,663.4ZM375.7,502.3c2.6,18.3,18.2,30.1,36.8,27.5a32.6,32.6,0,0,0,27.9-36.4c-2.2-18.2-18.9-30.7-37.3-28.2S373.1,483.9,375.7,502.3ZM602.5,401.2c-2.2-17.2-19.7-30.6-37-28.4s-30.9,19.7-28.4,37,17.7,30.4,37.2,28.4C591.3,436.5,604.8,418.5,602.5,401.2ZM537.5,566c14.9-2,25.6-16,24-31s-18.3-26.6-31.6-25a28.3,28.3,0,0,0-24.7,32.2C507.4,557.7,521.6,568.2,537.5,566Zm-63.1,29.8c-1.3-10.1-9.9-17.2-19.6-16.1a18.2,18.2,0,0,0-16.1,20.8c1.4,10.4,10.2,17.2,20.3,15.8S475.8,606.3,474.4,595.8Zm95.5,3c10.3-1.3,17.3-10,16-20s-11.2-17.6-21-16.1-16.9,11-15.6,20.8S559.6,600.2,569.9,598.8ZM457.4,398.6c-1.4-10.6-9.8-17.4-20-16.1a18,18,0,0,0-15.8,20.4c1.3,10.4,10.8,17.8,20.8,16.2S458.7,408.7,457.4,398.6ZM644,520.6c10.7-1.5,16.8-9.6,15.6-20.2s-10.6-16.3-20.3-15.5-16.9,9.6-15.5,20.2S633.3,522,644,520.6Z" transform="translate(-302.9 -276.6)"/><path class="cls-5" d="M421.8,663.4c2.7-.8,4.7,1.1,6.8,2.1,27.9,13.6,57.1,20.1,88.3,18.8,18-.7,35.1-4.7,52.3-10.1-11.9-5.2-14.8-9.3-11.9-16.2s9.1-8.7,14.2-6.4c7.1,3.3,8.7,9.5,4.3,19,4.5.2,7.9-2.3,11.2-4,61.4-32.3,95.7-83.1,99.9-152.3,3-48.4-12.9-91.2-45.1-127.7-2-2.2-4.9-3.9-5.1-7.4,14.9,10.5,26.5,24,36.6,38.9,66.1,97.2,22.9,229.5-88.4,269-56.4,20-110,11.9-160-20.9A27,27,0,0,1,421.8,663.4Z" transform="translate(-302.9 -276.6)"/><path class="cls-5" d="M375.7,502.3c-2.6-18.4,9.4-34.6,27.4-37.1s35.1,10,37.3,28.2a32.6,32.6,0,0,1-27.9,36.4C393.9,532.4,378.3,520.6,375.7,502.3Z" transform="translate(-302.9 -276.6)"/><path class="cls-5" d="M602.5,401.2c2.3,17.3-11.2,35.3-28.2,37-19.5,2-34.7-11.3-37.2-28.4s11.3-34.8,28.4-37S600.3,384,602.5,401.2Z" transform="translate(-302.9 -276.6)"/><path class="cls-5" d="M537.5,566c-15.9,2.2-30.1-8.3-32.3-23.8A28.3,28.3,0,0,1,529.9,510c13.3-1.6,29.8,8.8,31.6,25S552.4,564,537.5,566Z" transform="translate(-302.9 -276.6)"/><path class="cls-5" d="M474.4,595.8c1.4,10.5-5.1,19.2-15.4,20.5s-18.9-5.4-20.3-15.8a18.2,18.2,0,0,1,16.1-20.8C464.5,578.6,473.1,585.7,474.4,595.8Z" transform="translate(-302.9 -276.6)"/><path class="cls-5" d="M569.9,598.8c-10.3,1.4-19.3-5.4-20.6-15.3s5.8-19.4,15.6-20.8,19.8,6.2,21,16.1S580.2,597.5,569.9,598.8Z" transform="translate(-302.9 -276.6)"/><path class="cls-5" d="M457.4,398.6c1.3,10.1-5.1,18.9-15,20.5s-19.5-5.8-20.8-16.2a18,18,0,0,1,15.8-20.4C447.6,381.2,456,388,457.4,398.6Z" transform="translate(-302.9 -276.6)"/><path class="cls-5" d="M644,520.6c-10.7,1.4-18.8-4.8-20.2-15.5s4.9-19.3,15.5-20.2,19.2,4.6,20.3,15.5S654.7,519.1,644,520.6Z" transform="translate(-302.9 -276.6)"/><path class="cls-6" d="M421.8,647.6c-39.4,38.1-104.1,63.2-113.9,53s17.5-73.9,56.9-111.9,70.2-42.3,85.9-26S461.2,609.5,421.8,647.6Z" transform="translate(-302.9 -276.6)"/><path class="cls-7" d="M428.3,620.4c-25,24.1-65.9,40-72.1,33.6s11.1-46.8,36-70.9,44.4-26.7,54.3-16.4S453.2,596.3,428.3,620.4Z" transform="translate(-302.9 -276.6)"/><path class="cls-8" d="M439.8,594.5c-10.9,10.5-30.5,15.5-34.2,11.7s2.1-23.2,13-33.7,20.6-10.3,26.4-4.3S450.6,584,439.8,594.5Z" transform="translate(-302.9 -276.6)"/></g><path class="cls-9" d="M396.6,439.5l-7.3,6.9-70.6-70.7a3.2,3.2,0,0,1-.2-4.2h0a3.2,3.2,0,0,1,4.6-.3Z" transform="translate(-302.9 -276.6)"/><path class="cls-10" d="M346.7,403.5l4.6-5.2a3.3,3.3,0,0,0-.1-4.5L328,371.4a3.3,3.3,0,0,0-4.8.3l-3.6,4.4a3.3,3.3,0,0,0,.1,4.4l22.2,23.1A3.3,3.3,0,0,0,346.7,403.5Z" transform="translate(-302.9 -276.6)"/><path class="cls-10" d="M379.9,369.3c-5,10.6-15.1,13.4-22.3,23.7a3.7,3.7,0,0,1-1.5,1.3,4.1,4.1,0,0,1-5-.6l-22.2-21.4a2.8,2.8,0,0,1,.1-4l.4-.3c8.7-8.1,20.7-10,29.4-18a2.8,2.8,0,0,1,3.8,0l16.5,15.4A3.6,3.6,0,0,1,379.9,369.3Z" transform="translate(-302.9 -276.6)"/><path class="cls-11" d="M356.1,394.3a4.1,4.1,0,0,1-5-.6l-22.2-21.4a2.8,2.8,0,0,1,.1-4l.4-.3,25.9,25.3Z" transform="translate(-302.9 -276.6)"/><path class="cls-4" d="M376,468.2c.3-4.5-2.8-10.7-1.3-12.2a3.5,3.5,0,0,0,1-4.2c-2.1-4,5.1,6.1,2-3.6a3.4,3.4,0,0,1,3.8-4.3c4.6.8,7.5-1.4,7.6-6.8a3.5,3.5,0,0,1,3.5-3.4c1.9.2,2.5-1.3,1.8-4.4a3.3,3.3,0,0,1,4.2-3.8c6.4,2,2.7-2.9,10-.1" transform="translate(-302.9 -276.6)"/><path class="cls-12" d="M358.9,355.8a4.9,4.9,0,0,1,1.4,1.9,2.1,2.1,0,0,1-1,2.5l-6.8,4.7c-.3.3-.6.6-.5.9l2-.5.8-.5,2.8-2a5.4,5.4,0,0,1,2-1,2.6,2.6,0,0,1,2.1.2l.6.7a5.9,5.9,0,0,1,.4,5.8l-.6-.8c-.6-.8-1.2-.8-2.1,0a9.7,9.7,0,0,0-2.2,3,11.1,11.1,0,0,1-.7,1.6.7.7,0,0,0,.1.5l4,4.8,1.3,1.6-5.3,7.8a14.2,14.2,0,0,1-.5-1.6,25,25,0,0,1-1.2-10.4,12.1,12.1,0,0,1,2.3-6.3,11.5,11.5,0,0,1,2.2-2.2,2,2,0,0,1,2.3-.1,5.2,5.2,0,0,0-.8-3.5,1.2,1.2,0,0,0-1.5-.4,6.7,6.7,0,0,0-2.3,1l-3.1,2.2-.5.2a10.4,10.4,0,0,0-5,2.3,18.4,18.4,0,0,0-3.3,3.5,8.3,8.3,0,0,1-2.7-4.3,3.5,3.5,0,0,1,.4-2.2,5.9,5.9,0,0,1,2.4-2.3l12.9-7.1Z" transform="translate(-302.9 -276.6)"/><path class="cls-11" d="M346.4,403.8a3.3,3.3,0,0,1-4.5-.2l-22.2-23.1a3.3,3.3,0,0,1-.1-4.4h0a1.8,1.8,0,0,0,.5.7l25,26.1A3.8,3.8,0,0,0,346.4,403.8Z" transform="translate(-302.9 -276.6)"/><path class="cls-13" d="M708.6,313.7c-39.9-41.3-134.6,4.8-197.7,76.4A585.9,585.9,0,0,0,473.6,437c-4.1,5.7-7.9,11.3-11.5,16.7a460.5,460.5,0,0,0-36.2,64.9h0c-4.9,10.7-6.9,16.7-6.9,16.7l29,30.1,28.9,30s6.2-1.9,17.1-6.3h0a478.5,478.5,0,0,0,66.1-34c5.5-3.4,11.2-7,17.1-10.9,15.1-10.1,31.3-21.8,48.1-35.6C699,448,748.5,355,708.6,313.7Z" transform="translate(-302.9 -276.6)"/><polygon class="cls-14" points="145 288.8 145 288.8 116.1 258.8 101.9 272.4 130.9 302.5 130.9 302.5 159.9 332.5 174 318.8 145 288.8"/><path class="cls-15" d="M708.6,313.7c-23-23.8-64.2-18.6-107.1,3.8L651.3,369,701,420.5C724.9,378.5,731.6,337.5,708.6,313.7Z" transform="translate(-302.9 -276.6)"/><path class="cls-16" d="M511.1,504.4l-49-50.7a460.5,460.5,0,0,0-36.2,64.9h0c-4.9,10.7-6.9,16.7-6.9,16.7l29,30.1,28.9,30s6.2-1.9,17.1-6.3h0a478.5,478.5,0,0,0,66.1-34Z" transform="translate(-302.9 -276.6)"/><path class="cls-17" d="M710.7,316.1c-2,48.1-52,120.2-115.3,173.5-18.6,15.7-36.5,29.3-53.1,41-6.5,4.6-12.7,8.8-18.8,12.8a605.7,605.7,0,0,1-61.9,36.1l-9.8,4.8h0c-3.4,1.7-6.4,3-8.9,4.1L462.8,609l14.1-13.6s6.2-1.9,17.1-6.3h0a478.5,478.5,0,0,0,66.1-34c5.5-3.4,11.2-7,17.1-10.9,15.1-10.1,31.3-21.8,48.1-35.6C697.6,449.2,746.6,358.5,710.7,316.1Z" transform="translate(-302.9 -276.6)"/><path class="cls-15" d="M425.9,518.6h0c-8.1-26.7-64.1-24.4-64.1-24.4C415.2,417.1,473.6,437,473.6,437,448.6,471.9,433.7,501.3,425.9,518.6Z" transform="translate(-302.9 -276.6)"/><circle class="cls-15" cx="286.1" cy="152.5" r="48.9"/><path class="cls-15" d="M494,589.1h0c26.3,8.9,22.1,64.8,22.1,64.8,78.9-50.6,61.1-109.7,61.1-109.7C541.4,567.9,511.5,581.9,494,589.1Z" transform="translate(-302.9 -276.6)"/><circle class="cls-14" cx="286.1" cy="152.5" r="34.6"/><path class="cls-18" d="M646.1,314.8c-39.3,7.7-88.9,40.8-126.6,83.3-13.1,14.7-24.4,28.9-34.1,42.2-3.7,5.2-7.3,10.2-10.5,15" transform="translate(-302.9 -276.6)"/><path class="cls-19" d="M533.3,533.9c-16.9,11.5-39.6,8.5-52.1-5.3s-12-34.2,1.2-48.2c14.9-15.7,41.1-17.6,57.1-1.7S552.5,520.8,533.3,533.9Z" transform="translate(-302.9 -276.6)"/><path class="cls-20" d="M530.4,530c-14.7,10-34.4,7.4-45.2-4.6s-10.5-29.7,1-41.8c12.9-13.7,35.7-15.3,49.6-1.5S547,518.6,530.4,530Z" transform="translate(-302.9 -276.6)"/><path class="cls-19" d="M539.2,509.6a18.2,18.2,0,0,1-7.2,2.9c-3,.4-5.7-.2-7.7-2.3L513.5,499a1.5,1.5,0,0,0-1.8-.5,28.6,28.6,0,0,0,.7,2.8,5.2,5.2,0,0,0,1,1.1c1.4,1.6,2.8,3,4.1,4.6a9,9,0,0,1,2.2,3.6,3.6,3.6,0,0,1-.9,4.1,8.6,8.6,0,0,1-1.9,1.1,16.1,16.1,0,0,1-13.4-.5l1.9-.7c1.8-1,1.9-2.2.6-3.7a13.1,13.1,0,0,0-4.9-3.4l-2.5-1a.9.9,0,0,0-.7.1l-8.3,5.4-2.6,1.7-6.1-6.7,1.7-.6a38,38,0,0,1,12.7-2,18.2,18.2,0,0,1,9.3,2.9,13.4,13.4,0,0,1,3.7,3.8,2.8,2.8,0,0,1-.2,4c2.9.2,5.7.4,8.4-.9s1.8-1.5,1.4-2.9a10.2,10.2,0,0,0-2.2-4.1l-4.3-5a1.4,1.4,0,0,1-.2-.6,9.4,9.4,0,0,0-3.3-6.5,16.6,16.6,0,0,0-4.9-3,23,23,0,0,1,7.6-4.7,11.5,11.5,0,0,1,4.1-.5,7.2,7.2,0,0,1,4.3,2c6.6,6.7,13.2,13.5,20,20.3Z" transform="translate(-302.9 -276.6)"/></svg>