<svg id="Layer_1" data-name="Layer 1" xmlns="http://www.w3.org/2000/svg" xmlns:xlink="http://www.w3.org/1999/xlink" viewBox="0 0 426.5 520.5"><defs><style>.cls-1,.cls-13{fill:none;}.cls-2{fill:#212020;}.cls-3{fill:#fec216;}.cls-13,.cls-3,.cls-6{stroke:#000;}.cls-13,.cls-3,.cls-6,.cls-8,.cls-9{stroke-linecap:round;stroke-linejoin:round;}.cls-3,.cls-6,.cls-8,.cls-9{stroke-width:3px;}.cls-4{fill:#ff4900;}.cls-10,.cls-12,.cls-4{opacity:0.2;}.cls-5{clip-path:url(#clip-path);}.cls-11,.cls-12,.cls-7{fill:#fff;}.cls-8,.cls-9{stroke:#ba3905;}.cls-9{fill:#fe6e16;}.cls-10{fill:#fca01a;}.cls-11{opacity:0.5;}.cls-13{stroke-width:6px;}</style><clipPath id="clip-path" transform="translate(-292.4 -187.7)"><circle id="Ellipse_1" data-name="Ellipse 1" class="cls-1" cx="505.7" cy="479.3" r="202.7"/></clipPath></defs><title>think</title><circle id="Ellipse_1-2" data-name="Ellipse 1" class="cls-2" cx="213.2" cy="291.6" r="202.7"/><path class="cls-3" d="M415.1,469.5c-17.2-9.6-50.9,11.6-79.2,42.6s-42.5,63.6-42,87c1.1,48.5,74.6,42.8,98.2,1.7C425.2,543,436.3,481.2,415.1,469.5Z" transform="translate(-292.4 -187.7)"/><path class="cls-4" d="M392.1,600.8c-11.2,19.5-33.7,31.1-54.3,32.6a42.1,42.1,0,0,1-4.4-10.3c-6.2-22.7-.4-57.7,19.5-94.7,16.9-31.4,39.2-56.9,57.3-60.7a13.7,13.7,0,0,1,4.9,1.8C436.3,481.2,425.2,543,392.1,600.8Z" transform="translate(-292.4 -187.7)"/><g class="cls-5"><path class="cls-3" d="M586.8,470c17.2-12.8,53,19.4,83.8,65.2s42.1,97.9,45.9,122.5c10.5,68.6-72.1,60.9-98.6.9C580.6,574.2,565.8,485.6,586.8,470Z" transform="translate(-292.4 -187.7)"/><path class="cls-4" d="M656.1,688.9q-.9,5.3-2.1,9.6a84.4,84.4,0,0,1-36.1-39.9c-35.7-80.9-50.8-165.7-33.5-186.3,17.3.4,38.6,26.9,56.1,67.7C665.3,597.8,660.5,660.9,656.1,688.9Z" transform="translate(-292.4 -187.7)"/><g id="body"><path id="Group_3" data-name="Group 3" class="cls-3" d="M375.7,507.2c-17.1,36-40.6,123.6-21.8,184.1,0,0,39,16.6,133.4,15.3,108.5-1.5,156.3-14,156.3-14,10.5-77.1-2.1-137.7-29.5-191.1-17.7-34.3-57.9-59.2-103.8-61.9C481.2,437.8,408.4,438.5,375.7,507.2Z" transform="translate(-292.4 -187.7)"/></g><path class="cls-4" d="M375.7,507.2a113.7,113.7,0,0,1,22.6-32.4,133.9,133.9,0,0,0-10.5,21.8c-15,38.9-35.3,131.8-21.1,198.7a112.2,112.2,0,0,1-12.8-4C335.1,630.8,358.6,543.2,375.7,507.2Z" transform="translate(-292.4 -187.7)"/><path class="cls-4" d="M643.6,692.6s-4.5,1.1-13.8,2.8c8-82.2-3.4-147.4-27.4-205.1a96.3,96.3,0,0,0-7-14,98.8,98.8,0,0,1,18.7,25.2C641.5,554.9,654.2,615.5,643.6,692.6Z" transform="translate(-292.4 -187.7)"/><g id="Group_1" data-name="Group 1"><path id="Group_1-2" data-name="Group 1" class="cls-2" d="M542.5,551.6c-.3,7.7-1,15.1-4.4,21.6s-9.9,12.2-18.4,12.4L476.1,587c-1.9.1-3.4.7-4,2.8,2.6,1.3,5,2.8,7.6,3.8s2.9.2,4.3.2h17.2a29.6,29.6,0,0,1,12.3,2.4c4.3,1.9,7.6,5,8.4,9.9a14.8,14.8,0,0,1-.2,6.3c-3.3,13.3-10.4,22.8-22.5,27.6.4-2,.9-3.7,1.1-5.5.4-5.6-2.1-8.3-7.7-8.6s-10.9,1.3-15.8,3.5a43,43,0,0,0-6,3.2,2.2,2.2,0,0,0-.9,1.7c-.1,9.4-.2,18.7-.2,27.7-.1,2.9,0,5.8-.1,8.7l-24.5-1c.5-1.7.8-3.2,1.3-4.8,3-10.6,7.4-20.7,14.5-29.5,5.4-6.6,12.1-11.5,21-13.6a36.2,36.2,0,0,1,14.7-.5c4.5.9,8,3.2,9.2,8.5,5.1-5.7,10.1-11.3,11.2-19.7.5-4.3-.9-6.7-4.9-8.7a31.8,31.8,0,0,0-13.3-3.3c-6.2-.4-12.3-.4-18.4-.6a3.1,3.1,0,0,1-1.8-.7,27.1,27.1,0,0,0-20.1-5.4,34,34,0,0,0-13.9,4.5c-1.1-8.4-1.3-16.7.9-24.5a22.3,22.3,0,0,1,4.9-9.4,15.4,15.4,0,0,1,10.9-5.3l79.9-5.1Z" transform="translate(-292.4 -187.7)"/></g></g><g id="hair"><g id="Group_3-2" data-name="Group 3"><path id="Group_1-3" data-name="Group 1" class="cls-3" d="M471.2,189.5a2.4,2.4,0,0,1,3.4,1c5.6,10.7,6.7,20.6-1.3,30.7-3.8,4.8-26.6,16.2-34.6,24.7a2.4,2.4,0,0,0,2.8,3.8c12.9-5.8,29.6-23.4,40.7-12.3s4.3,43.5,1.8,54c-.8,3-5.9,2.4-5.7-.7.6-11,11.2-43.6-3.6-49.7-9.1-3.7-22,10.6-29.5,13.7-12.2,5.1-20.1,2.8-27.8,14.4a2.4,2.4,0,0,1-4.1-.1c-10.5-17.3-8.9-30,7.7-43S453.9,200.1,471.2,189.5Z" transform="translate(-292.4 -187.7)"/></g><path id="Group_2" data-name="Group 2" class="cls-3" d="M478.6,268.6c-1.8-1.9-4.2-3.8-7-4.1s-6.7,1.5-7.1,5.1,1.9,6,4.4,7.5a27.9,27.9,0,0,0,6.6,2.4,27.7,27.7,0,0,1,6.9,3.4c1.2.8,2.5,2.1,2.8-.4C485.8,278.1,481.4,271.5,478.6,268.6Z" transform="translate(-292.4 -187.7)"/><path id="Group_1-4" data-name="Group 1" class="cls-3" d="M490.5,267.4a10.4,10.4,0,0,1,5.5-4.2c2.2-.7,5,0,5.9,2s.1,3.8-1.1,5.4a28.8,28.8,0,0,1-4.6,3.9,41.6,41.6,0,0,0-6.2,6.4c-1.4,1.7-2.7,3.9-3.9,1.7C483.9,278.7,488,270.6,490.5,267.4Z" transform="translate(-292.4 -187.7)"/></g><g id="head"><path id="Group_3-3" data-name="Group 3" class="cls-3" d="M568,499.3c60.8-22.3,78.7-61.8,78.7-61.8-12.9,5.4-21.1-6.8-21.1-6.8,23.1-12,31.1-35.2,31.1-35.2-14.2,11.4-40,2.9-40,2.9-.2-61.7-50.3-119.9-124.8-119.7-76.7.1-123.6,67.5-118.6,121.6,0,0-24.6,4.1-35.6-3.7a75.3,75.3,0,0,0,23.7,31.6s-10.9,13-19,10.3c0,0,7.3,26.1,71.1,49.8" transform="translate(-292.4 -187.7)"/><path id="Group_2-2" data-name="Group 2" class="cls-4" d="M430.7,297.3l-1.1,1.3a30,30,0,0,1-2.3,3c-21,23.6-48.6,57.5-42,111.4-7.7-2-18.2,1-26.1.7h-.3a1.9,1.9,0,0,0-1.6.9,1.5,1.5,0,0,0,0,1.8c4.8,8,8.5,10.5,11.5,19.4-3.4.1-3.6,6.3-6.8,7.2l-2.2.6a1.7,1.7,0,0,0-1.3,1.4,1.8,1.8,0,0,0,.7,1.7c13.5,9.3,18.3,16.5,29.5,28.5C357.9,458,351,447.8,346,440.9c8.1.4,15.4-10.8,15.9-11a1.7,1.7,0,0,0,1.3-1.3,1.8,1.8,0,0,0-.7-1.8c-12.7-9.8-19.8-18.5-22.1-26.5,11.4,5.9,31.8,1.6,32.5,1.7a1.9,1.9,0,0,0,1.6-.3,2.2,2.2,0,0,0,.6-1.5C371.5,361.8,394.7,319.4,430.7,297.3Z" transform="translate(-292.4 -187.7)"/><path id="Group_1-5" data-name="Group 1" class="cls-4" d="M642.4,440.6c-6.3,8.4-14.7,25.2-47.3,42.6,11.6-12.1,15.6-23.2,29.6-32.5a1.8,1.8,0,0,0-.2-3.1l-.9-.2c-8.3.7-12.1-.6-20.4-2.4,9.6-9.5,17.5-18,26.4-28.2a1.7,1.7,0,0,0,.2-2,1.6,1.6,0,0,0-1.9-.8c-9.1,2-21.5.3-30-3.5,17.2-60-46-113.3-49-117.1,40.2,19.9,65.9,60.5,66,105a1.8,1.8,0,0,0,1.6,1.8c.8,0,22.9,7.4,37-.5-3.1,8.9-12,20.8-28.7,29.4a1.9,1.9,0,0,0-.9,1.6,1.6,1.6,0,0,0,.9,1.5C625.2,432.5,631.2,442.8,642.4,440.6Z" transform="translate(-292.4 -187.7)"/></g><g id="face"><g id="Group_3-4" data-name="Group 3"><path id="Group_2-3" data-name="Group 2" class="cls-6" d="M464.6,391.6c-2.7,9.8-12.8,14.7-22.6,12.1s-15.5-11.9-12.9-21.7,7.9-2.1,17.7.5S467.2,381.8,464.6,391.6Z" transform="translate(-292.4 -187.7)"/><circle id="Group_1-6" data-name="Group 1" class="cls-7" cx="144.9" cy="201.3" r="4.4"/></g><g id="Group_2-4" data-name="Group 2"><path id="Group_2-5" data-name="Group 2" class="cls-6" d="M558.9,381.8c1.3,10.1-6.4,18.4-16.4,19.8s-18.7-4.9-20-14.9a18.4,18.4,0,0,1,36.4-4.9Z" transform="translate(-292.4 -187.7)"/><circle id="Group_1-7" data-name="Group 1" class="cls-7" cx="239" cy="196.9" r="4.4"/></g></g><g id="Group_1-8" data-name="Group 1"><path id="Group_4" data-name="Group 4" class="cls-8" d="M520.6,413.3c.9-13.1-14.8-14.6-27-14.4-14.1.1-29.9,5.5-27.4,18.8,10.9,16.1,19.2,23,27.9,23.4S512.8,430.8,520.6,413.3Z" transform="translate(-292.4 -187.7)"/><path id="Group_3-5" data-name="Group 3" class="cls-9" d="M520.6,413.3c1.9-13-14.8-14.6-27-14.4-14.1.1-30.5,5.6-27.4,18.8,1.5,6.5,15.5,13.8,23.9,17.8a9.2,9.2,0,0,0,9.2-.6C508.3,429.4,519.6,420.3,520.6,413.3Z" transform="translate(-292.4 -187.7)"/><path id="Group_2-6" data-name="Group 2" class="cls-10" d="M499.3,434.9a8.8,8.8,0,0,1-9.2.6c-8.2-4.2-22.4-11.3-23.9-17.8a12.2,12.2,0,0,1,0-6.3c2.4,6.7,18.4,13.4,27.4,13.4s24.1-9.9,26.5-17.1a11.1,11.1,0,0,1,.5,5.6C519.6,420.3,508.1,429.3,499.3,434.9Z" transform="translate(-292.4 -187.7)"/><path id="Group_1-9" data-name="Group 1" class="cls-11" d="M493.9,402.8c-4.3.1-13.6,1.7-13.8,3.4s27.8,1,28-.9S498.2,402.8,493.9,402.8Z" transform="translate(-292.4 -187.7)"/></g><g id="Layer_3" data-name="Layer 3"><g id="Group_5" data-name="Group 5"><circle id="Group_4-2" data-name="Group 4" class="cls-12" cx="152.9" cy="201.4" r="32.7"/><circle id="Group_3-6" data-name="Group 3" class="cls-13" cx="152.9" cy="201.4" r="32.7"/><path id="Group_2-7" data-name="Group 2" class="cls-11" d="M440,386.6c-5.2,8-7.4,15.7-14.2,11.9s-9.1-15-3.3-23.8,16.1-11.1,22.6-5.8S445.2,378.7,440,386.6Z" transform="translate(-292.4 -187.7)"/><path id="Group_1-10" data-name="Group 1" class="cls-11" d="M455.1,400.5c4.2-4.1,6.5-8.4,10.1-5.2s3.4,10.1-1.2,14.6-11.1,4.5-14.3.5S451,404.5,455.1,400.5Z" transform="translate(-292.4 -187.7)"/></g><g id="Group_4-3" data-name="Group 4"><circle id="Group_4-4" data-name="Group 4" class="cls-12" cx="248.4" cy="197.1" r="32.7"/><circle id="Group_3-7" data-name="Group 3" class="cls-13" cx="248.4" cy="197.1" r="32.7"/><path id="Group_2-8" data-name="Group 2" class="cls-11" d="M535.5,382.4c-5.2,8-7.4,15.6-14.2,11.8s-9.1-14.9-3.3-23.7,16.1-11.2,22.6-5.9S540.7,374.4,535.5,382.4Z" transform="translate(-292.4 -187.7)"/><path id="Group_1-11" data-name="Group 1" class="cls-11" d="M550.6,396.2c4.2-4.1,6.5-8.4,10.1-5.2s3.4,10.2-1.3,14.6-11,4.6-14.2.5S546.5,400.3,550.6,396.2Z" transform="translate(-292.4 -187.7)"/></g><path id="Group_3-8" data-name="Group 3" class="cls-13" d="M478,387.3c6.3-6.3,25.1-5.5,29.3-1.1" transform="translate(-292.4 -187.7)"/></g><path class="cls-3" d="M298.2,615.3c20.8,45.9,90.1,35.2,143.1-9.7,29.6-25,69.3-64.5,45-98-14.6-20.1-49.1-14.7-81.4-2.8-15.9,5.9-43.6,19.6-67.2,37.3" transform="translate(-292.4 -187.7)"/><path class="cls-3" d="M472.5,569c23.4,1.9,57.4-10.3,75.8-28.6s5.3-39,5.3-39c6.7-12.6,4-28.8-7.3-37.1s-76.2,8.2-95.7,25.9" transform="translate(-292.4 -187.7)"/><path class="cls-3" d="M553.6,501.4c-4.9,9.2-15.4,17.5-23.3,20.6" transform="translate(-292.4 -187.7)"/><path class="cls-3" d="M522.2,494c10.9-6.6,38.5-16.4,61-22.1s33.8-14,25.7-27.9c-9.9-16.9-27.9-16.9-47.2-9-16.9,6.9-49.4,25.1-64.7,25.8-17.2.7-37.1-19.5-54.2-24-21.9-5.7-28.4,9.8-22.5,17.3s20.3,9.3,23.3,23.3c2,9.5-6.7,24-6.7,24" transform="translate(-292.4 -187.7)"/><path class="cls-4" d="M430.2,606.8c13-8,28.1-17.9,40.5-29.4a275.6,275.6,0,0,1-29.4,28.2c-46.8,39.7-106.4,52.7-134,23.4C341,640.8,389.1,631.9,430.2,606.8Z" transform="translate(-292.4 -187.7)"/></svg>